<?xml version="1.0" encoding="utf-8"?>
<!-- Generator: Adobe Illustrator 23.0.3, SVG Export Plug-In . SVG Version: 6.00 Build 0)  -->
<svg version="1.1" xmlns="http://www.w3.org/2000/svg" xmlns:xlink="http://www.w3.org/1999/xlink" x="0px" y="0px"
	 viewBox="0 0 465.3 586" style="enable-background:new 0 0 465.3 586;" xml:space="preserve">
<style type="text/css">
	.st0{fill:#202124;}
	.st1{fill:#FFFFFF;stroke:#202124;stroke-width:0.75;stroke-miterlimit:10;}
	.st2{fill:#5492ED;}
	.st3{fill:#EB506E;}
	.st4{fill:none;stroke:#202124;stroke-width:0.75;stroke-miterlimit:10;}
	.st5{fill:#EAEAEA;}
	.st6{fill:#BFBFBF;}
	.st7{fill:#FFFFFF;stroke:#202124;stroke-miterlimit:10;}
	.st8{fill:#040844;}
	.st9{fill:none;}
	.st10{fill:#B1CEFC;}
	.st11{fill:#FFFFFF;}
	.st12{fill:#F7CD5B;}
	.st13{fill:#EDEDED;}
	.st14{fill:#CCCCCC;}
	.st15{fill:#D8D8D8;}
	.st16{fill:#A3A3A3;}
</style>
<g id="background">
	<g id="plant">
		<path class="st0" d="M5.1,432.2c0.6,2.4,11.9,79.5,11.9,79.5h58.8l10.1-79.5H5.1z"/>
		<ellipse class="st1" cx="45.5" cy="432.2" rx="40.4" ry="10.9"/>
		<g>
			<g>
				<path class="st2" d="M41.5,345.7c-4.8,6.5-9.5,13.8-9.4,22.2c0.1,8.4,4.8,15.6,9.9,21.9c3.1,3.7,6.6,7.5,8,12.2
					c1.4,4.7-0.3,9.5-2.3,13.8c-2.9,6.3-6.6,12.4-5.7,19.6c0.2,1.9,3.2,1.9,3,0c-1.7-14.1,14.1-24.3,6-38.7
					c-4.4-7.7-11.6-13.2-14.6-21.9c-3.5-10.4,1.8-19.4,7.8-27.5C45.2,345.6,42.6,344.1,41.5,345.7L41.5,345.7z"/>
			</g>
		</g>
		<g>
			<g>
				<path class="st2" d="M10.1,360.4c-2.7,9.4,1.6,18.6,10.3,22.9c5.3,2.7,11,4.3,15.9,7.8c6.9,4.8,11.7,11.9,12,20.4
					c0.1,1.9,3.1,1.9,3,0c-0.4-10.8-7.2-19.4-16.3-24.8c-5.1-3-11.1-4.2-15.9-7.5c-5.9-4-8.1-11.3-6.2-18
					C13.6,359.3,10.7,358.5,10.1,360.4L10.1,360.4z"/>
			</g>
		</g>
		<g>
			<g>
				<path class="st2" d="M20.1,329.8c-9.1,15.5-3.7,34.9,12.3,43.2c1.7,0.9,3.2-1.7,1.5-2.6c-14.5-7.6-19.5-25-11.2-39.1
					C23.6,329.7,21,328.2,20.1,329.8L20.1,329.8z"/>
			</g>
		</g>
		<g>
			<g>
				<path class="st2" d="M52.3,335.7c3.8,5.5,0.4,17.3-6.4,19.4c-4.2,1.3-7.9-0.3-11.3,3.2c-1.4,1.4,0.8,3.5,2.1,2.1
					c3.2-3.2,8.1-1.2,11.8-3.1c2.4-1.2,3.9-3.4,5.2-5.7c3.2-5.4,5-11.9,1.2-17.4C53.8,332.6,51.2,334.1,52.3,335.7L52.3,335.7z"/>
			</g>
		</g>
		<g>
			<g>
				<path class="st2" d="M45.7,428.9c2-9.7,11.4-14.9,16.7-22.6c2.6-3.8,4.1-8.2,4.3-12.7c0.3-6.6-4.1-16,2.6-20.6
					c1.6-1.1,0.1-3.7-1.5-2.6c-3.6,2.5-5.2,6.3-5.2,10.7c0,3.6,1.1,7.2,1.1,10.8c0.1,4.2-1,8.2-3.2,11.8
					c-5.3,8.8-15.5,13.8-17.7,24.5C42.4,430,45.3,430.8,45.7,428.9L45.7,428.9z"/>
			</g>
		</g>
		<path class="st2" d="M17.4,340.8c-1.2-2.2-2.4-5.1-3-8.8c-1.5-10.3,3.7-18.4,5.4-20.7c1.3,2.1,2.8,5.2,3.4,9.3
			C24.8,330.9,18.9,338.9,17.4,340.8z"/>
		<path class="st2" d="M13.2,372.4c-2.5-1.3-6.7-3.9-9.7-8.8c-7.1-11.4-1.3-24.3-0.7-25.6c2.4,2.1,6.6,6.2,9.3,12.7
			C16.1,360.5,14.1,369.4,13.2,372.4z"/>
		<path class="st2" d="M14.2,387.7c1.3,2.5,2.8,4.2,4.1,5.4c9.2,7.9,23.8,2.5,24.9,2.1c-2-2-7.3-6.7-15.6-8.2
			C21.7,385.9,16.9,387,14.2,387.7z"/>
		<path class="st2" d="M35.6,359.3c-2.4,0.1-4.7-6.8-5.4-11.5c-1.3-10,3.9-17.9,5.8-20.5c1.3,2.1,3,5.1,3.9,9
			C42.6,347.1,38.8,359.2,35.6,359.3z"/>
		<path class="st2" d="M49.4,354.9c-0.9-3.1-1.6-6.7-2-10.8c-0.8-8.6,0.2-15.9,1.5-21.2c1.4,1.2,6.3,5.8,7.3,13.4
			C57.5,346.9,50.2,354.1,49.4,354.9z"/>
		<path class="st2" d="M47,393.6c-1-1.2-4.7-6.1-4.3-13.2c0.5-8.7,6.9-13.7,7.8-14.4c1.1,1.8,3.5,6.4,3.2,12.7
			C53.3,387,48.3,392.3,47,393.6z"/>
		<path class="st2" d="M60.7,356.8c-1,2.9-2.8,9.3-1.2,17.1c1.1,5.5,3.4,9.5,5,11.9c1.1-2.2,4-9,2.1-17.5
			C65.3,362.6,62.4,358.7,60.7,356.8z"/>
		<path class="st2" d="M52.2,415.3c1.7,1.4,4.2,2.9,7.3,3.6c10.8,2.4,19.8-7.1,20.5-7.8c-2.7-0.7-6.5-1.5-11-1.2
			C61,410.3,55.2,413.5,52.2,415.3z"/>
		<path class="st2" d="M65,395.2c-1.6-1.7,0.9-7.1,4-10.2c4.9-4.9,11.7-4.5,13.2-4.4c-0.1,2-0.6,5.1-2.7,8
			C75.4,394.6,67,397.3,65,395.2z"/>
	</g>
	<g id="chair">
		<path class="st3" d="M114.1,445.4c7.4,21.5,34.5,29.6,72.1,40.7c43.4,12.9,90.2,26.8,144.9,7.3c59.9-21.3,88.3-68,111.5-106.2
			c16-26.2,27.4-44.9,20-59.4c-3.7-7.4-15.5-20-137.3-12.8c-68.6,4.1-103.5,6.4-129.2,19.7C150.3,358.5,102,410,114.1,445.4z"/>
	</g>
	<g id="book_2">
		<polygon class="st1" points="282,546 282,565.7 361.9,585.6 376.8,561.8 372.2,546 		"/>
		<line class="st4" x1="286.9" y1="562.9" x2="357.4" y2="578.8"/>
		<line class="st4" x1="285.7" y1="558.2" x2="343.4" y2="570.9"/>
		<line class="st4" x1="302.8" y1="556.1" x2="356.7" y2="567.7"/>
		<polygon class="st5" points="276.5,544.7 361,563.9 361,585.9 458.5,554.8 460.1,529.9 389.5,523.3 		"/>
	</g>
	<g id="book_1">
		<polygon class="st1" points="283.5,526.8 283.5,541.5 363.3,559.3 366.3,529.7 		"/>
		<line class="st4" x1="286" y1="538.5" x2="358" y2="554.5"/>
		<line class="st4" x1="285.2" y1="534.2" x2="349" y2="547.9"/>
		<line class="st4" x1="318.5" y1="538.3" x2="366.3" y2="547.9"/>
		<line class="st4" x1="285.8" y1="531.1" x2="311.3" y2="536.6"/>
		<polygon class="st6" points="276.5,525.2 361.6,545.5 361.6,561.8 465.3,528.3 465.3,514.9 378,503.1 		"/>
	</g>
	<g id="coffee">
		<path class="st0" d="M386.4,526.8c-10.1,0-20.2,0-30.2,0c-2.3-17.8-4.6-35.5-6.8-53.3h44.1C391.1,491.3,388.7,509.1,386.4,526.8z"
			/>
		<rect x="346.8" y="467.7" class="st7" width="47.8" height="9"/>
		<rect x="355.3" y="462.2" class="st7" width="32" height="5.6"/>
	</g>
</g>
<g id="character">
	<g id="torso">
		<path class="st8" d="M216.8,172.8c-1.5,3.9-3.8,9.7-6.6,16.8c-9.4,24.4-14.2,36.6-17.7,47.7c-1.2,3.7-6.3,19.8-11.1,41.7
			c-2.7,12.3-4.6,23.2-6,32.3c1.3,2.4,3.5,5.9,7,9.3c7.7,7.5,15.7,8.8,25.8,12.1c18.9,6.1,17.2,10.2,33.5,15.2
			c7.1,2.2,17.9,4.7,32.1,4.7c8.8,0.5,17.5,1.1,26.3,1.6c4.7-8.6,10.9-20.1,17.8-33.8c5.6-11.1,11.7-23.2,18.7-39.3
			c9.1-20.8,13.9-31.1,15.8-39.8c2.1-9.7,4-25,0.2-45.1c-0.7-1.4-1.4-2.8-2.1-4.3c-17.3-8.8-33-13.8-45-16.7
			c-17-4.2-31-5.4-39.1-5.8c-10.5-0.5-19.1-0.2-24.5,0.2C232.4,170.2,223.9,171.4,216.8,172.8z"/>
		<g>
			<path class="st9" d="M216.8,172.8c45-8.9,93-2.1,133.8,19"/>
		</g>
		<g>
			<path class="st9" d="M358.2,214.9c-2.7,21.8-11.1,42.4-20,62.4c-11.7,26.1-24.4,51.7-38.2,76.8"/>
		</g>
		<g>
			<path class="st9" d="M213.3,182.6c-18.4,40.9-31.2,84.4-37.9,128.7"/>
		</g>
		<g>
			<g>
				<path class="st0" d="M176.2,316.4c33.2,26.2,75.6,39.2,117.8,36.3c0.5,0,0.5-0.8,0-0.8c-42,2.9-84.2-10-117.2-36
					C176.4,315.5,175.8,316.1,176.2,316.4L176.2,316.4z"/>
			</g>
		</g>
	</g>
	<g id="leg_right">
		<path class="st2" d="M124.1,515.1c-29.5,21.8-43.1,34.8-40.9,38.8c2.7,4.8,27-2.6,72.9-22c-3.4-8.3-6.9-16.6-10.3-24.9
			C138.6,509.8,131.3,512.5,124.1,515.1z"/>
		<path class="st10" d="M34.6,336.8c-2.5,5.6-2.8,10.5-3,13.8c-0.3,5.6,0.3,12.2,4.4,24.2c2,5.8,4.9,13,15.7,33.2
			c3.9,7.3,6.8,12.6,11.2,20.3c12.7,21.9,24,38.3,27.8,43.8c9.1,13,20.1,27.6,33.2,43.1c1.7,0.7,4.9,1.7,8.8,1
			c8.5-1.5,12.2-10,12.6-10.7c-2.9-8.5-5.6-17.3-8.3-26.5c-7.3-25.4-12.3-49.6-15.8-72c12.6-2.6,25.4-5.1,38.6-7.5
			c23.7-4.3,46.8-7.9,69.1-10.9c2.8-3.8,7.2-10.8,8.9-20.6c2.9-17.1-4.7-30.4-7-34.1c-20.2-4-40.4-7.9-60.5-11.9
			c-17.8-1-32.3-2.2-42.3-3.1c-20.9-1.9-43.5-1.7-57.4-2.3c-5.5-0.2-13.1-0.5-21,3.7C39.8,325.7,35.5,335,34.6,336.8z"/>
		<g>
			<path class="st9" d="M170.4,322c-17.8-1.3-35.6-2.6-53.4-4c-17.6-1.3-35.3-2.6-52.8-1c-4.9,0.5-9.9,1.2-14.5,3.3
				c-12.1,5.5-18.3,19.9-18,33.2c0.3,13.3,5.9,25.9,11.7,37.9c21.5,43.8,48.2,85.1,79.5,122.5"/>
		</g>
		<g>
			<path class="st9" d="M212.2,390.1c-30.4,5.1-60.7,10.7-90.9,16.8"/>
		</g>
		<g>
			<path class="st9" d="M121.4,408.1c5.2,33,13.3,65.7,24,97.4"/>
		</g>
		<g>
			<g>
				<path class="st0" d="M124,515.5c8.4,3.1,17.8-0.4,22.2-8.2c0.2-0.4-0.4-0.8-0.6-0.4c-4.2,7.5-13.3,10.8-21.3,7.8
					C123.7,514.6,123.5,515.3,124,515.5L124,515.5z"/>
			</g>
		</g>
		<g>
			<g>
				<path class="st11" d="M119.5,519.7c-0.9-4.1-6.1-3.2-7.9-0.2c-0.6,1-0.8,2.2,0.4,2.8c1.8,0.9,3.9-1.3,5.3-2.1
					c0.9-0.5,0.6-0.8,1.3-0.1c0.3,0.3,0.4,1.1,0.5,1.4c0.5,1.3,1.1,2.7,2.1,3.7c1,1.1,2.6,1.9,3.9,0.9c1.3-1,0.9-3,0.2-4.3
					c-1-1.8-2.8-2.7-4.8-2.8c-0.5,0-0.5,0.7,0,0.8c1.3,0.1,3.3,0.5,3.7,1.9c0.9,0.7,0.6,1.4-0.9,2c-0.9,1.9-1.7,1.9-2.3,0.1
					c-1-1.6-1.6-3.4-2.1-5.2c-0.1-0.3-0.4-0.3-0.6-0.2c-0.7,0.6-1.5,1.3-2.3,1.8c-1.2,0.8-1.4,1.4-2.6,0.1c-1.1-1.2-0.8-1.3,0.6-2
					c1.7-0.8,4.1-0.7,4.6,1.6C118.9,520.4,119.7,520.2,119.5,519.7L119.5,519.7z"/>
			</g>
		</g>
		<g>
			<g>
				<path class="st11" d="M102.4,531c2.3-1.2,5.1-0.5,6.8,1.5c0.3,0.4,0.8-0.2,0.5-0.5c-1.8-2.3-5.1-3-7.7-1.6
					C101.6,530.6,101.9,531.3,102.4,531L102.4,531z"/>
			</g>
		</g>
		<g>
			<g>
				<path class="st11" d="M106,526.9c2.1-0.8,4.3-0.1,5.8,1.6c0.3,0.4,0.8-0.2,0.5-0.5c-1.6-1.9-4.2-2.6-6.5-1.7
					C105.3,526.3,105.5,527,106,526.9L106,526.9z"/>
			</g>
		</g>
		<g>
			<g>
				<path class="st11" d="M110,523.9c1.9-0.4,3.7,0.3,4.9,1.7c0.3,0.4,0.8-0.2,0.5-0.5c-1.4-1.6-3.5-2.3-5.6-1.9
					C109.3,523.2,109.5,524,110,523.9L110,523.9z"/>
			</g>
		</g>
		<g>
			<g>
				<path class="st11" d="M98,533.4c2.7,0.1,5,1.1,7,2.9c0.4,0.3,0.9-0.2,0.5-0.5c-2.1-2-4.7-3-7.5-3.1
					C97.5,532.7,97.5,533.4,98,533.4L98,533.4z"/>
			</g>
		</g>
		<g>
			<g>
				<path class="st11" d="M113.2,547.3c13.1-5.1,26.2-10.3,39.3-15.4c0.4-0.2,0.3-0.9-0.2-0.7c-13.1,5.1-26.2,10.3-39.3,15.4
					C112.5,546.7,112.7,547.5,113.2,547.3L113.2,547.3z"/>
			</g>
		</g>
	</g>
	<g id="hand_left">
		<path class="st12" d="M314.4,340.6c-0.7,1-1.8,2.3-3,4c-3.7,5-5.6,7.6-6.5,10.1c-1.2,3.4-1.3,6.2-1.4,8.1c0,1.8-0.1,5.3,1.5,9.5
			c1.5,4,3.7,6.7,5.3,8.4c0.4,1.1,1.2,2.9,2.8,4.6c1.3,1.4,2.7,2.3,3.6,2.8c0.1-2.1,0.3-5.1,0.9-8.7c0.7-4.6,1.2-7.4,2.7-10.5
			c1.2-2.5,2.2-3.3,6.3-8.3c1.8-2.2,4.4-5.3,7.4-9.3c0.7-3.1,1.3-6.3,2-9.4C328.6,341.4,321.5,341,314.4,340.6z"/>
		<path class="st8" d="M310.6,220.6c-0.9-4.2-1.3-10.3,1.6-16.1c5.5-11,21.3-16.8,38.5-12.7c1.5,2.3,3.8,5.9,6.4,10.5
			c7.2,12.4,11.4,22.6,17,35.9c6.2,14.9,4.1,11.9,8.1,20.7c2.8,6.2,5.2,10.8,6.3,18.2c1,6.4,0.2,10.1-0.1,11.2
			c-1.5,6.2-5.2,10.2-7,12.2c-8.6,9.3-16.6,19.3-25.7,28.1c-4.8,4.7-12.2,11.9-21.3,21.1c-0.8-1.6-2.8-4.7-6.7-7
			c-5.8-3.4-11.7-2.3-13.1-2c1.4-5.6,2.7-11.2,4.2-16.8c3.7-14.9,7.6-29.5,11.5-44c-2.5-9.6-5.4-19.7-8.9-30.3
			C317.7,239.3,314.2,229.6,310.6,220.6z"/>
		<g>
			<path class="st9" d="M352.2,194.1c14.1,22.8,23.6,48.2,33.1,73.3c2.2,5.8,4.4,11.8,3.6,18c-0.9,7.2-5.8,13.1-10.6,18.6
				c-14,15.9-28.7,31.1-44,45.7"/>
		</g>
		<g>
			<g>
				<path class="st11" d="M314.9,339.8c4.9-19.9,10-39.7,15.2-59.5c0.1-0.5-0.6-0.7-0.7-0.2c-5.2,19.8-10.3,39.7-15.2,59.5
					C314.1,340,314.8,340.2,314.9,339.8L314.9,339.8z"/>
			</g>
		</g>
		<g>
			<g>
				<path class="st11" d="M310.2,220.7c7.8,19.3,14.2,39.2,19.2,59.4c0.1,0.5,0.8,0.3,0.7-0.2c-5-20.2-11.4-40.1-19.2-59.4
					C310.8,220.1,310,220.3,310.2,220.7L310.2,220.7z"/>
			</g>
		</g>
		<g>
			<path class="st9" d="M316.6,340.5c6.5-1.4,13.9,2.3,16.5,8.5"/>
		</g>
		<g>
			<path class="st9" d="M314.4,340.6c-2.7,3.4-5.2,7-7.6,10.7c-2.2,3.5-4.3,7.5-3.3,11.5"/>
		</g>
		<g>
			<path class="st9" d="M333.8,350.5c-1.9,6.7-9.3,10.3-12.8,16.3c-1.1,2-1.8,4.2-2.4,6.4c-1.2,4.8-1.9,9.7-2.1,14.7"/>
		</g>
		<g>
			<g>
				<path class="st0" d="M304.5,359.8c-1.3,5-1,10.1,0.9,14.9c0.2,0.4,0.9,0.2,0.7-0.2c-1.9-4.7-2.2-9.6-0.9-14.5
					C305.3,359.5,304.6,359.3,304.5,359.8L304.5,359.8z"/>
			</g>
		</g>
		<g>
			<g>
				<path class="st0" d="M307.8,361.4c-1.3,7.7-0.2,15.2,3.3,22.2c0.2,0.4,0.9,0.1,0.6-0.4c-3.4-6.8-4.5-14.1-3.3-21.6
					C308.6,361.2,307.9,361,307.8,361.4L307.8,361.4z"/>
			</g>
		</g>
		<g>
			<g>
				<path class="st0" d="M311.6,363.8c-0.9,7.5-0.2,14.8,2.2,21.9c0.2,0.5,0.9,0.3,0.7-0.2c-2.3-7.1-3-14.3-2.1-21.7
					C312.4,363.4,311.6,363.4,311.6,363.8L311.6,363.8z"/>
			</g>
		</g>
	</g>
	<g id="leg_left">
		<path class="st2" d="M116.1,527.3c-33.3,21.2-48.9,34-46.9,38.3c2.3,4.8,26.6-1,72.9-17.3c0.4-7.8,0.8-15.6,1.1-23.3
			C134.2,525.8,125.1,526.6,116.1,527.3z"/>
		<path class="st10" d="M116.1,527.3c0-4.8,0-11.5,0.1-19.3c0.5-22,2.1-38.7,2.5-42.9c2.9-29.8,7.7-51.4,13.1-75.3
			c2.7-12,5.7-24.2,11.9-39c6.3-15,11.4-22.1,16.4-27.3c4.1-4.3,10.2-10.6,20.3-14.3c10.3-3.8,19.1-2.9,23.3-2.4
			c9.9,1.1,16.6,4.5,24,8.3c10.8,5.5,18,11.5,26.1,18.3c7.5,6.3,13.6,12.3,18.2,17.3c9.4,1.2,18.7,2.3,28.1,3.5
			c-1.1,3.2-2.8,8.2-4.7,14.3c-5.8,18.3-5.9,21.9-10,33.1c-5.4,14.5-9.9,21-12.5,24.5c-6.4,8.4-11.3,11-14.1,12.2
			c-4.7,2-8.5,2-14.7,2c-27.2,0.2-9.1,1.1-35.9,0.8c-5.9-0.1-13.8-0.2-23.3-0.4c-4.8,9.7-9.7,19.5-14.5,29.3
			c-9.3,19.1-18.4,38.1-27.2,56.9c-1.4,0.6-3.4,1.5-6,2.4c-5.6,1.9-9.6,3.3-14,2.2C121.6,531.1,118.9,530.1,116.1,527.3z"/>
		<g>
			<g>
				<path class="st11" d="M116.5,524c-0.6-47.5,5.2-95,17.3-140.9c5.6-21.2,11.8-44.4,27.5-60.6c7-7.2,15.9-12.9,25.8-15.1
					c12-2.6,24.5,0.7,35.4,5.7c21,9.5,37.7,26.3,53.7,42.5c0.3,0.3,0.9-0.2,0.5-0.5c-25.4-25.7-67.3-66.7-105.8-41.4
					c-17.8,11.7-26.7,31.8-32.8,51.4c-7.6,24.5-13.1,49.7-16.9,75c-4.1,27.8-5.9,55.9-5.6,84C115.8,524.5,116.6,524.5,116.5,524
					L116.5,524z"/>
			</g>
		</g>
		<g>
			<path class="st9" d="M298.4,359.5c-9,23.8-11.7,51-28.5,70.1c-3.1,3.6-6.8,6.8-11.2,8.6c-4.4,1.8-9.2,2.1-13.9,2.3
				c-18.7,0.8-37.4,0.8-56,0"/>
		</g>
		<g>
			<path class="st9" d="M208.1,393.3c-21.6,43.9-43.3,87.8-64.9,131.7"/>
		</g>
		<g>
			<path class="st9" d="M116.1,527.3c2.6,3.4,7.3,4.8,11.7,4.5c4.3-0.3,8.4-2,12.4-3.7"/>
		</g>
		<g>
			<g>
				<path class="st11" d="M114,531.1c-1.5-3.6-5.9-5.3-9.1-2.6c-0.9,0.8-1.9,2.1-1.2,3.3c1.1,1.9,4,1.3,5.7,1.3
					c1.3,0,2.4-0.4,3.3,1.2c0.3,0.6,0.4,1.4,0.7,2c0.4,0.8,0.8,1.5,1.5,2c1.1,0.7,2.7,0.9,3.5-0.3c2.1-2.9-1.9-7.4-4.8-7.5
					c-0.5,0-0.5,0.7,0,0.8c1.8,0,4.2,2.1,4.3,4c-2.1,2.8-3.5,2.8-4.2,0c-0.1-0.3-0.2-0.5-0.3-0.8c-0.3-0.8-0.5-2.3-1.5-2.7
					c-0.3-0.2-0.8-0.1-1.1-0.1c-1.8,0.2-2.8,1-4.8,0.5c-3.7-1-0.1-4.4,2.4-4.4c2.2,0,3.9,1.4,4.6,3.4
					C113.4,531.7,114.1,531.5,114,531.1L114,531.1z"/>
			</g>
		</g>
		<g>
			<g>
				<path class="st11" d="M92.9,542.9c1.8-0.7,3.9,0,4.9,1.7c0.2,0.4,0.9,0,0.6-0.4c-1.1-2-3.6-2.9-5.7-2.1
					C92.3,542.4,92.5,543.1,92.9,542.9L92.9,542.9z"/>
			</g>
		</g>
		<g>
			<g>
				<path class="st11" d="M96.6,539.4c2-0.2,3.9,1,4.6,2.9c0.2,0.4,0.9,0.3,0.7-0.2c-0.8-2.2-2.9-3.6-5.3-3.4
					C96.1,538.7,96.1,539.4,96.6,539.4L96.6,539.4z"/>
			</g>
		</g>
		<g>
			<g>
				<path class="st11" d="M101.2,536.4c1.9-0.2,3.7,0.7,4.6,2.4c0.2,0.4,0.9,0.1,0.6-0.4c-1-1.9-3.1-3.1-5.2-2.8
					C100.7,535.8,100.7,536.5,101.2,536.4L101.2,536.4z"/>
			</g>
		</g>
		<g>
			<g>
				<path class="st11" d="M99.4,560.2c13.4-5.1,26.8-10,40.3-14.7c0.5-0.2,0.3-0.9-0.2-0.7c-13.5,4.7-27,9.6-40.3,14.7
					C98.7,559.6,98.9,560.3,99.4,560.2L99.4,560.2z"/>
			</g>
		</g>
	</g>
	<g id="head">
		<path class="st12" d="M248.7,153.2c-0.4,1.7-0.7,4.3-0.4,7.4c0.2,1.8,0.6,5,2.6,8.5c0.8,1.5,3,5.2,7.6,7.4
			c5.7,2.6,11.1,0.9,12.4,0.4c0.7,1.2,1.4,2.3,2.1,3.5c-0.7,0.3-2,1.2-3,2.8c-0.3,0.4-1.7,2.7-1,5.4c0.9,3.5,4.7,4.7,5.3,5
			c2.9,0.9,5.4,0.1,6.9-0.4c3-1,4.9-2.8,5.7-3.6c3.4-3.3,4.4-7.2,4.9-9.1c0.3-1.3,0.5-2.4,0.6-3.2c-3.6-2.6-7.1-5.1-10.7-7.7
			c0-3.7-0.1-7.8-0.6-12.3c-0.4-3.5-0.9-6.7-1.5-9.7c-5.2-1.5-9.5-1.6-12.3-1.6c-3.9,0.1-9.9,0.3-15.4,4.3
			C250.5,151.3,249.4,152.4,248.7,153.2z"/>
		<path class="st2" d="M274.3,130.9c-0.3-1.6-0.7-3.8-0.9-6.4c-0.2-2.8-0.4-7,0.9-12.1c1-4.1,1.9-7.5,5.1-10
			c0.7-0.6,3.8-3.1,7.4-2.4c1.7,0.3,3.1,1.5,5.8,3.8c3.7,3.1,3.6,4,5.6,4.9c2.9,1.3,5.8,0.6,7.7,0.1c3.3-0.8,4.4-2,8.2-4
			c0,0,3.1-1.6,9.2-3.6c12.3-4.1,23.9-1.7,23.9-1.7c3.8,0.8,12.7,2.7,20.1,10.2c5.4,5.5,7.6,11.3,8.9,15c1.1,3,3.3,10.1,2.5,19.3
			c-0.3,3.7-1,11.4-5.9,19.3c-5.7,9.2-13.7,13.2-18.8,15.8c-15.4,7.7-29.6,6.1-32.5,5.7c-4.3-0.6-14.2-2-23.7-9.3
			c-6-4.6-9.2-9.5-11.9-13.7C282,155.7,276.6,145.5,274.3,130.9z"/>
		<path class="st2" d="M272.4,145.8c3.6,0.4,6.7,1.5,9.1,2.5c-0.9-2.6-5-14-16.7-19.5c-2.3-1.1-9.4-4.3-18-2.4
			c-2.2,0.5-6.4,1.5-10.2,5.1c-1.3,1.2-5.1,4.8-5.6,10.6c-0.1,1.1-0.7,7.2,3.8,11.6c0.5,0.5,3.9,3.7,9,3.7c2,0,3.5-0.5,4.5-0.9
			c0.2-1.4,0.4-2.9,0.6-4.3C252,149.9,260.9,144.4,272.4,145.8z"/>
		<ellipse class="st0" cx="265.7" cy="154.7" rx="1.2" ry="2.1"/>
		<path class="st3" d="M265.7,129.3c1.4-0.4,6.9-1.7,12.5,1.2c8.1,4.2,9.2,13.3,9.3,14c1.4,0.6,2.7,1.2,4.1,1.8
			c0.6,3.1,1,7.3,0.5,12.2c-0.4,3.2-1,5.9-1.8,8.1c-0.5,0.6-1.8,2.1-4.1,2.7c-1.9,0.5-3.6,0.2-4.3,0c-0.7-2.7-1.3-6.1-1.6-9.9
			c-0.3-4.5,0-8.4,0.5-11.5c-0.7-2.8-2.6-8.2-7.3-13C270.7,132.1,267.8,130.4,265.7,129.3z"/>
		<g>
			<path class="st9" d="M248.9,152.1c-1,4.6-1,9.5,0.6,13.9c1.6,4.4,4.8,8.4,9,10.4c6.6,3.2,15.3,1,19.6-5"/>
		</g>
		<g>
			<g>
				<path class="st0" d="M270.5,177c0.7,1.2,1.4,2.3,2.1,3.5c0.3,0.4,0.9,0,0.6-0.4c-0.7-1.2-1.4-2.3-2.1-3.5
					C270.9,176.2,270.3,176.6,270.5,177L270.5,177z"/>
			</g>
		</g>
		<g>
			<path class="st9" d="M270,183.1c-1.5,1.8-1.6,4.6-0.4,6.7s3.4,3.4,5.7,3.8c2.3,0.4,4.8-0.1,7-1c5.5-2.4,9.5-8.1,9.9-14.2"/>
		</g>
		<g>
			<g>
				<path class="st0" d="M257.2,152.9c-1,3.5-3.1,15.3,3.6,14.5c0.5-0.1,0.5-0.8,0-0.8c-3.6,0.5-4-4.4-4-6.9c0-2.3,0.4-4.4,1.1-6.6
					C258.1,152.7,257.4,152.5,257.2,152.9L257.2,152.9z"/>
			</g>
		</g>
		<g>
			<path class="st9" d="M245.6,154.7c9.1-8.1,22.6-11,34.2-7.2"/>
		</g>
		<g>
			<path class="st9" d="M247.7,156.5c-4.6,1.9-10.2,0.3-13.4-3.4c-3.3-3.7-4.2-9.2-2.8-13.9c1.4-4.7,5-8.6,9.4-10.9
				c4.4-2.2,9.5-2.9,14.4-2.3c11.7,1.3,22.2,10,25.8,21.2"/>
		</g>
		<g>
			<path class="st9" d="M274.1,128.7c-1.5-6.4-1.1-13.3,1.1-19.6c0.9-2.5,2.1-5,4.1-6.8c2-1.8,4.7-3,7.4-2.4c5.2,1,7.7,7.7,12.8,9.2
				c4,1.2,8.2-1.2,11.9-3.2c9.4-5,20-8,30.7-7.3c10.6,0.7,21.2,5.5,27.8,13.8c6.1,7.7,8.4,17.7,8.7,27.4c0.1,4.2-0.1,8.3-1.1,12.4
				c-3.3,13.5-15.2,23.6-28.2,28.5c-10.1,3.9-21.3,5.2-32,3s-20.7-7.8-27.5-16.2"/>
		</g>
	</g>
	<g id="microphone">
		<path class="st13" d="M215.6,241.8h-22.5c-4.6,0-8.4-3.8-8.4-8.4v-62.1c0-4.6,3.8-8.4,8.4-8.4h22.5c4.6,0,8.4,3.8,8.4,8.4v62.1
			C224,238.1,220.2,241.8,215.6,241.8z"/>
		<path class="st14" d="M194.7,232v-13.2H224v-9.7h-29.3V196H224v-11.6h-29.3v-13.2H224v-25.3c0-21.4-17.3-38.7-38.7-38.7h0
			c-21.4,0-38.7,17.3-38.7,38.7v83.8c0,21.4,17.3,38.7,38.7,38.7h0c20.6,0,37.4-16.1,38.6-36.4H194.7z"/>
		<rect x="176.7" y="0.4" class="st15" width="16.1" height="105.4"/>
		<rect x="165.6" y="97.5" class="st16" width="39.4" height="13.5"/>
	</g>
	<g id="hand_right">
		<path class="st12" d="M140.2,157.7c-0.3,1.5-0.7,3.4-1.1,5.8c-0.6,3.5-1.4,9.7-1.4,17.4c0,8.5,1.1,15.5,2,20.1
			c1.6,8.1,3.9,15.1,6.2,20.7c1.5,1.7,3.4,3.5,5.6,5.3c6.6,5.3,13.4,7.8,18.2,9.1c-0.6-1.2-1.5-3.1-3-5.2c-2.1-3-4-4.9-4.6-5.5
			c-2.3-2.3-5.7-6.7-10.1-15.8c2.4,1.2,5.4,2.4,8.9,3.3c4.8,1.3,9.1,1.6,12.3,1.6c-1.1-2.3-2.7-5.7-4.9-9.5c-2.2-3.9-4-6.5-7.1-10.9
			c-3.5-5-6.9-10-10.4-15c2.6,1.4,5.5,2.8,8.5,4.2c4.8,2.2,9.3,3.9,13.6,5.3c-1.2-2.4-3.1-5.8-5.8-9.7c-3.5-5-7.6-10.9-14.9-15.7
			C149.8,161.6,145.8,159.3,140.2,157.7z"/>
		<g>
			<path class="st9" d="M146,221.7c-8.4-20.1-10.4-42.7-5.7-64"/>
		</g>
		<g>
			<path class="st9" d="M143.2,157.6c9.9,4.4,17.1,13,24,21.3"/>
		</g>
		<g>
			<path class="st9" d="M148.4,223.9c4.9,5.5,11.5,9.5,18.7,11.1"/>
		</g>
		<g>
			<g>
				<path class="st0" d="M145.2,176c8,5,16.5,9,25.3,12.3c0.5,0.2,0.7-0.6,0.2-0.7c-8.8-3.2-17.2-7.3-25.2-12.2
					C145.2,175.1,144.8,175.7,145.2,176L145.2,176z"/>
			</g>
		</g>
		<g>
			<path class="st9" d="M150.7,179.6c7.3,7.9,13.4,16.9,17.7,26.8"/>
		</g>
		<g>
			<g>
				<path class="st0" d="M143.8,206c8.6,5.3,18,8.3,28.1,8.9c0.5,0,0.5-0.7,0-0.8c-10-0.6-19.2-3.6-27.7-8.8
					C143.7,205.1,143.3,205.7,143.8,206L143.8,206z"/>
			</g>
		</g>
		<g>
			<g>
				<path class="st0" d="M145.2,191.2c6.4,8.6,14.4,15.6,23.7,20.8c0.4,0.2,0.8-0.4,0.4-0.6c-9.2-5.2-17.1-12.1-23.4-20.6
					C145.6,190.5,145,190.8,145.2,191.2L145.2,191.2z"/>
			</g>
		</g>
		<g>
			<g>
				<path class="st0" d="M152.7,212.2c4.1,7.8,9.2,14.8,15.3,21.1c0.3,0.3,0.9-0.2,0.5-0.5c-6-6.3-11.1-13.3-15.2-21
					C153.1,211.4,152.4,211.8,152.7,212.2L152.7,212.2z"/>
			</g>
		</g>
	</g>
</g>
</svg>
