<?xml version="1.0" encoding="utf-8"?>
<!-- Generator: Adobe Illustrator 23.0.3, SVG Export Plug-In . SVG Version: 6.00 Build 0)  -->
<svg version="1.1" xmlns="http://www.w3.org/2000/svg" xmlns:xlink="http://www.w3.org/1999/xlink" x="0px" y="0px"
	 viewBox="0 0 601.3 576.7" style="enable-background:new 0 0 601.3 576.7;" xml:space="preserve">
<style type="text/css">
	.st0{fill:#999999;}
	.st1{fill:#C6C6C6;}
	.st2{fill:#E8E8E8;}
	.st3{fill:#202124;}
	.st4{fill:#FFFFFF;stroke:#202124;stroke-miterlimit:10;}
	.st5{fill:#5492ED;}
	.st6{fill:#FFFFFF;}
	.st7{fill:#F7CD5B;}
	.st8{fill:#B1CEFC;}
	.st9{fill:none;}
	.st10{opacity:0.34;fill:#606060;}
	.st11{fill:#FFFFFF;stroke:#FFFFFF;stroke-miterlimit:10;}
	.st12{fill:none;stroke:#FFFFFF;stroke-miterlimit:10;}
	.st13{fill:#EB506E;}
	.st14{fill:#040844;}
</style>
<g id="background">
	<g id="stairs">
		<path class="st0" d="M301.7,542.5c0,0,13.7-3.3,27.8-6.7c0,0,16.4-3.8,29.7-6.5c21.4-4.4,115.4,4.9,241.4,25.5
			c0.1,7.1,0.1,14.2,0.2,21.3c-34.9-0.1-69.8-0.3-104.7-0.4C431.3,564.7,366.5,553.6,301.7,542.5z"/>
		<path class="st1" d="M132.3,575.6c0.2-0.9,0-80.6,0-80.6s68.8-1.4,71.8-1s331.5,81.6,331.5,81.6H132.3z"/>
		<path class="st2" d="M0.6,575.6c0.2-1.4,0-121.9,0-121.9s56.5-2.2,59-1.5C62,453,331.9,575.6,331.9,575.6H0.6z"/>
	</g>
	<g id="plant">
		<path class="st3" d="M20.6,425.9c0,0.3,0.1,1.2,0.3,2.6c1.5,12.8,9,67.5,9,67.5H74l11.2-70"/>
		<ellipse class="st4" cx="52.9" cy="426.4" rx="32.3" ry="4.6"/>
		<g>
			<g>
				<path class="st5" d="M45.5,343.9c-5.3,13.8-10.9,29.8-3.3,43.9c3.2,6,9.4,10.9,10.7,17.8c1.5,7.6-3.4,14.7-1.6,22.4
					c0.4,1.9,3.3,1.1,2.9-0.8c-1.6-7.2,2.8-13.9,1.9-21c-0.8-5.9-4.7-10.5-8.1-15.1c-10.6-14.6-5.4-31,0.5-46.4
					C49.1,342.9,46.2,342.1,45.5,343.9L45.5,343.9z"/>
			</g>
		</g>
		<g>
			<g>
				<path class="st5" d="M23.2,369c-0.4,10.1,0.5,20.7,5.6,29.8c2,3.6,4.6,7,8.3,8.9c4.9,2.4,11.8,1.6,14.9,6.9
					c1,1.7,3.5,0.2,2.6-1.5c-1.6-2.8-3.9-4.4-6.9-5.4c-5.8-2-10.7-2.1-14.5-7.6c-6.3-9-7.3-20.4-6.9-31.1
					C26.3,367,23.3,367,23.2,369L23.2,369z"/>
			</g>
		</g>
		<g>
			<g>
				<path class="st5" d="M44.6,386.2c6.8,1.2,11.3-2.6,13.9-8.6c3.6-8.5,4.5-18.1,10.7-25.3c1.3-1.4-0.8-3.6-2.1-2.1
					c-3.9,4.4-6,9.6-7.7,15.1c-2.2,6.9-4.2,19.7-14.1,18C43.6,382.9,42.7,385.8,44.6,386.2L44.6,386.2z"/>
			</g>
		</g>
		<g>
			<g>
				<path class="st5" d="M34,335.5c-2.5,8.8-1.9,17.2,5.4,23.6c1.4,1.3,3.6-0.8,2.1-2.1c-6.5-5.7-6.8-12.8-4.6-20.6
					C37.4,334.5,34.6,333.7,34,335.5L34,335.5z"/>
			</g>
		</g>
		<path class="st5" d="M24.7,381.7c-1.2-0.7-7.6-4.4-10-12.5c-2.3-8,1-14.4,1.7-15.7c1.9,1.9,4.4,4.9,6.3,9.1
			C26.4,370.9,25.3,378.6,24.7,381.7z"/>
		<path class="st5" d="M31.8,400.8c-1.3-2.6-2.7-6.4-3.2-11.2c-0.9-9.5,2.9-16.8,4.6-19.6c0.7,0.9,8.5,11.1,4.6,22.2
			C36.3,396.3,33.7,399.2,31.8,400.8z"/>
		<path class="st5" d="M33.9,342.9c-1.6-1.6-3.4-3.8-4.5-6.8c-4-10.2,2.5-20.2,3.4-21.5c1.6,1.6,3.7,4.2,4.9,7.8
			C41.1,332.5,34.8,341.7,33.9,342.9z"/>
		<path class="st5" d="M40,370c0.2-2.2,1.1-7.2,4.9-11.9c5.4-6.7,12.9-8,14.8-8.3c-0.3,2.1-1,4.7-2.3,7.3
			C52.5,366.5,42.5,369.4,40,370z"/>
		<path class="st5" d="M46.5,349.1c-1.1-1.8-3.1-5.9-2.9-11.1c0.4-9.3,7.2-14.9,8.3-15.8c1.1,1.9,2.6,5,2.9,9.1
			C55.4,341.3,47.6,348.1,46.5,349.1z"/>
		<path class="st5" d="M53.5,402.5c-0.2-1.5-0.6-5.8,1.8-10.1c3.6-6.4,10.4-7.8,11.4-8c0,1.9-0.2,5-1.8,8.3
			C61.6,399.5,55.1,402,53.5,402.5z"/>
		<path class="st5" d="M58.5,373.5c2.1,0.5,5.9,1.1,10.1-0.4c9.7-3.2,12.5-13.9,12.7-14.8c-1.3-0.3-7.9-1.5-14.3,2.6
			C60.2,365.3,58.7,372.3,58.5,373.5z"/>
		<path class="st5" d="M68.3,353c-1.7-1.7-4-4.5-5.2-8.6c-3.1-10.6,4.1-19.7,4.9-20.7c1.2,2.9,2.6,7.4,2.9,13
			C71.3,343.9,69.6,349.7,68.3,353z"/>
	</g>
</g>
<g id="guy">
	<g id="leg_left_1_">
		<path class="st5" d="M217.2,511c18.1,17.6,26.2,27.5,24.5,29.7c-1.9,2.5-16.3-4.6-43.1-21.4c1.5-4.8,3-9.6,4.5-14.4
			c0.4,1.1,1.3,3,3.2,4.5C210.9,513,216.7,511.2,217.2,511z"/>
		<g>
			<g>
				<path class="st6" d="M217.1,512.9c-2.2-0.5-4.2,4.7-2.2,4.8c1.3,0.1,1.9-1.7,2.3-2.6c0.3-1,0.6-2.1,1.3-2.9
					c0.3-0.3,1.2-1.1,1.6-0.5c0.6,0.9-1.1,1.7-1.6,1.6c-0.5,0-0.5,0.7,0,0.8c2.6,0.2,3.2-4.1,0.6-3.2c-1.3,0.5-2,1.9-2.3,3.2
					c-0.1,0.3-1.2,3.5-1.9,2.7c-0.2-0.3,0.4-1.6,0.5-1.8c0.3-0.5,0.9-1.4,1.5-1.2C217.4,513.8,217.6,513,217.1,512.9L217.1,512.9z"
					/>
			</g>
		</g>
		<g>
			<g>
				<path class="st6" d="M220.1,519.2c1.1-1.2,2.5-1.9,4.1-1.8c0.5,0,0.5-0.7,0-0.8c-1.8,0-3.4,0.7-4.6,2.1
					C219.3,519,219.8,519.5,220.1,519.2L220.1,519.2z"/>
			</g>
		</g>
		<g>
			<g>
				<path class="st6" d="M223.1,520.9c1-0.8,2.1-1.3,3.4-1.4c0.5,0,0.5-0.8,0-0.8c-1.5,0.1-2.8,0.6-3.9,1.6
					C222.2,520.7,222.8,521.2,223.1,520.9L223.1,520.9z"/>
			</g>
		</g>
		<g>
			<g>
				<path class="st6" d="M225.1,523.7c1.2-0.8,2.4-1.3,3.8-1.5c0.5-0.1,0.3-0.8-0.2-0.7c-1.5,0.2-2.8,0.8-4,1.6
					C224.3,523.3,224.7,524,225.1,523.7L225.1,523.7z"/>
			</g>
		</g>
		<g>
			<g>
				<path class="st6" d="M227.6,526.5c0.2-0.1,3.1-1.4,3.2-1.1c0.1,0.5,0.8,0.3,0.7-0.2c-0.2-1.5-3.6,0.3-4.3,0.7
					C226.8,526.1,227.2,526.7,227.6,526.5L227.6,526.5z"/>
			</g>
		</g>
		<g>
			<g>
				<path class="st6" d="M199.7,518.7c9.1,4.7,17.8,9.9,26.2,15.7c0.4,0.3,0.8-0.4,0.4-0.6c-8.4-5.8-17.2-11.1-26.2-15.7
					C199.6,517.8,199.3,518.5,199.7,518.7L199.7,518.7z"/>
			</g>
		</g>
		<path class="st3" d="M254.5,276.7c1.6,18.9,3.2,38.1,4.5,57.5c1.3,17.7,2.4,35.2,3.4,52.6c0,5.3,0,10.6,0,15.9
			c-2.5,7-6.4,17.7-11.7,30.6c-6.1,14.9-10.2,23.2-18.5,42c-3.9,8.9-9.6,21.7-16.3,37.4c-1.2,0.1-3.7,0.2-6.4-1.1
			c-3.4-1.6-5.1-4.3-5.7-5.3c0.2-4.5,0.5-11.5,0.8-20c0.7-22.2,1-39.2,1.1-46.9c1-68.9,0.1-83.6,1.9-115.4
			c0.8-14.7,2.4-37.2,6.1-65.1C227.3,264.8,240.9,270.8,254.5,276.7z"/>
		<g>
			<g>
				<path class="st3" d="M253.9,278.2c5,40.5,7.8,81.2,8.4,122c0,0.5,0.8,0.5,0.8,0c-0.6-40.8-3.4-81.5-8.4-122
					C254.6,277.7,253.8,277.7,253.9,278.2L253.9,278.2z"/>
			</g>
		</g>
		<g>
			<g>
				<path class="st3" d="M261.9,401.8c-12.9,36.9-28.4,72.9-46.3,107.6c-0.2,0.4,0.4,0.8,0.6,0.4C234.2,475,249.7,439,262.7,402
					C262.8,401.6,262.1,401.4,261.9,401.8L261.9,401.8z"/>
			</g>
		</g>
		<g>
			<g>
				<path class="st3" d="M206.7,343.5c0.2,53.8-0.7,107.7-2.7,161.5c0,0.5,0.7,0.5,0.8,0c2.1-53.8,3-107.7,2.7-161.5
					C207.5,343,206.7,343,206.7,343.5L206.7,343.5z"/>
			</g>
		</g>
		<g>
			<g>
				<path class="st3" d="M204.1,507.5c2.1,4,6.9,5.9,11.2,4.5c0.5-0.1,0.3-0.9-0.2-0.7c-4,1.3-8.4-0.5-10.4-4.2
					C204.5,506.7,203.9,507,204.1,507.5L204.1,507.5z"/>
			</g>
		</g>
	</g>
	<g id="leg_right_1_">
		<path class="st5" d="M130.7,469c20.1,32.3,28.5,49.7,25.3,52.2c-3.6,2.8-22.1-13.5-55.6-49.1c3.1-4.3,6.1-8.6,9.2-12.8
			c0.7,1.5,1.7,3.1,3.1,4.6C119.1,470.5,129.1,469.2,130.7,469z"/>
		<g>
			<g>
				<path class="st6" d="M129.9,471.2c-1.3-0.3-2.6-0.1-3.7,0.7c-1,0.7-2.1,2-1.9,3.3c0.2,1.2,1.4,1.3,2.3,0.7
					c1.4-0.9,2.4-2.1,3.2-3.5c0.2-0.4-0.4-0.8-0.6-0.4c-0.4,0.8-1,1.6-1.6,2.2c-0.4,0.3-0.7,0.7-1.1,0.9c-0.2,0.1-0.4,0.3-0.6,0.4
					c-0.7-0.3-0.9-0.8-0.5-1.5c0.7-1.7,2.7-2.4,4.4-2.1C130.2,472,130.4,471.3,129.9,471.2L129.9,471.2z"/>
			</g>
		</g>
		<g>
			<g>
				<path class="st6" d="M130.8,471.6c0.3-0.9,0.9-1.7,1.7-2.2c0.9-0.6,2.9-1.2,3.3,0.2c0.4,1.5-1.4,2.1-2.5,2.1
					c-1,0-1.9-0.1-2.9-0.1c-0.5,0-0.5,0.7,0,0.8c1.7,0.1,3.8,0.5,5.2-0.5c0.9-0.7,1.4-2,0.7-3c-0.8-1.1-2.4-0.9-3.5-0.4
					c-1.3,0.6-2.2,1.7-2.7,3C130,471.8,130.7,472,130.8,471.6L130.8,471.6z"/>
			</g>
		</g>
		<g>
			<g>
				<path class="st6" d="M132.5,477.7c0.6-0.5,1.2-0.8,1.9-1.1c0.4-0.2,1.8-0.7,2.1-0.3c0.3,0.4,0.9,0,0.6-0.4
					c-0.5-0.7-1.3-0.5-2-0.3c-1.1,0.3-2.2,0.8-3.1,1.5C131.8,477.4,132.2,478,132.5,477.7L132.5,477.7z"/>
			</g>
		</g>
		<g>
			<g>
				<path class="st6" d="M134,480.8c1-1,2.3-1.5,3.8-1.4c0.5,0,0.5-0.7,0-0.8c-1.6-0.1-3.2,0.5-4.3,1.7
					C133.1,480.6,133.7,481.1,134,480.8L134,480.8z"/>
			</g>
		</g>
		<g>
			<g>
				<path class="st6" d="M136,484.2c1.1-0.9,2.5-1.4,3.9-1.5c0.5,0,0.5-0.8,0-0.8c-1.6,0.1-3.1,0.7-4.4,1.7
					C135.1,484,135.7,484.5,136,484.2L136,484.2z"/>
			</g>
		</g>
		<g>
			<g>
				<path class="st6" d="M138.3,488c1.2-0.9,2.6-1.5,4.1-1.6c0.5,0,0.5-0.8,0-0.8c-1.7,0.1-3.3,0.7-4.6,1.8
					C137.4,487.8,138,488.3,138.3,488L138.3,488z"/>
			</g>
		</g>
		<g>
			<g>
				<path class="st6" d="M140.3,491.3c0.9-0.7,1.8-1.2,2.8-1.6c0.4-0.2,0.2-0.9-0.2-0.7c-1.1,0.4-2.1,1-3,1.7
					C139.5,491,139.9,491.6,140.3,491.3L140.3,491.3z"/>
			</g>
		</g>
		<g>
			<g>
				<path class="st6" d="M102.1,471.6c9.3,9.6,18.6,19.1,27.9,28.7c0.3,0.3,0.9-0.2,0.5-0.5c-9.3-9.6-18.6-19.1-27.9-28.7
					C102.2,470.7,101.7,471.2,102.1,471.6L102.1,471.6z"/>
			</g>
		</g>
		<path class="st3" d="M176.3,243.5c2.5,38.2,5,76.4,7.6,114.6c-10.7,13.4-21.5,27.5-32.3,42.3c-15.1,20.7-29,40.9-41.8,60.6
			c0.9,1.6,2.8,4.1,6,5.9c7.1,4,14.7,1,15.8,0.6c3.4-3.4,9.5-9.4,17.5-16.7c20.6-18.8,33-27.3,61.1-50.6
			c5.1-4.2,13.3-11.1,23.5-19.9c1.6-1.1,4.3-3.2,6.2-6.9c0.2-0.5,1.2-2.4,1.7-5.2c0.6-3.4,0-5.1-0.4-11c0,0,0,0-0.2-6
			c-0.3-9.2-0.7-18.4-1-27.6c-1.1-29.7-1.1-28.4-1.1-30.3c-0.9-18.8-1.4-28.1-2.2-30.6c-2.4-6.6-10.9-21.6-52.2-28.5
			C181.5,237.3,178.9,240.4,176.3,243.5z"/>
		<g>
			<g>
				<path class="st3" d="M175.8,245.2c3,37.6,5.6,75.2,7.7,112.9c0,0.5,0.8,0.5,0.8,0c-2.1-37.7-4.7-75.3-7.7-112.9
					C176.5,244.7,175.8,244.7,175.8,245.2L175.8,245.2z"/>
			</g>
		</g>
		<g>
			<g>
				<path class="st3" d="M182.1,359.9c-25.5,32.2-49.8,65.3-72.8,99.2c-0.3,0.4,0.4,0.8,0.6,0.4c23.1-33.9,47.3-66.9,72.7-99
					C183,360,182.4,359.5,182.1,359.9L182.1,359.9z"/>
			</g>
		</g>
		<g>
			<g>
				<path class="st3" d="M109.4,461.1c4.1,7.9,13.3,8.4,21.3,8.3c0.5,0,0.5-0.8,0-0.8c-7.6,0.1-16.6-0.2-20.6-7.9
					C109.8,460.3,109.2,460.6,109.4,461.1L109.4,461.1z"/>
			</g>
		</g>
		<g>
			<g>
				<path class="st3" d="M238,290.5c1,25.8,2,51.7,2.9,77.5c0,0.5,0.8,0.5,0.8,0c-1-25.8-2-51.7-2.9-77.5
					C238.8,290,238,290,238,290.5L238,290.5z"/>
			</g>
		</g>
		<g>
			<g>
				<path class="st3" d="M239.4,373c-7.3,9.4-17.3,16.8-26.5,24.3c-9.2,7.5-18.5,14.9-27.7,22.3c-18.7,15.1-37.1,30.5-54,47.5
					c-0.3,0.3,0.2,0.9,0.5,0.5c16.9-17.1,35.3-32.4,54-47.5c9.2-7.4,18.5-14.8,27.7-22.3c9.2-7.5,19.2-14.8,26.5-24.3
					C240.2,373.1,239.7,372.6,239.4,373L239.4,373z"/>
			</g>
		</g>
	</g>
	<g id="hand_left_1_">
		<path class="st7" d="M376.9,274.7c-2.8-0.7-5.7,0.5-6.9,2.8c-1.5,2.7-0.4,6.6,2.8,8.3c1.7,2.3,4.5,5.5,8.8,8.4
			c2.1,1.5,5.7,3.9,10.8,5.2c6.1,1.5,11.4,0.7,14.5-0.1c-2.7-1.2-5.3-2.4-8-3.6c3.2,1,6.9,1.7,11,1.9c0.8,0,1.5,0,2.3,0
			c-6.8-4.5-10-7.1-9.7-7.7c0.3-0.5,3.5,0.6,9.7,3.4c-1.8-1.8-3.5-3.1-4.7-4.1c-3.3-2.6-6.2-4.4-9.2-6.2c-1.1-0.6-1.9-1.2-2.5-1.5
			c2.4-0.2,5.1-0.5,5.2-1.3c0.1-1.1-4.3-2.4-6-2.9C391,276,384.9,274.7,376.9,274.7z"/>
		<path class="st8" d="M325.3,169.3c-6,2.5-14.2,6.7-22.3,14.1c-15.6,14.4-20.7,31.8-22.5,39.4c0.8,4,2,9.1,3.4,15.1
			c3.7,15.3,3.9,13,7,25.9c1.3,5.3,3.7,10.3,5,15.6c0.3,1.1,0.8,3.7,3,5.8c1.9,1.9,4.1,2.5,5.3,2.8c9.8,2.5,21.5,1.6,21.5,1.6
			c13.8-1.1,6.7,0,21.3-1.3c6-0.5,14.3-1.3,24.1-2.5c0.9-0.8,2.1-2.2,3-4.1c1.5-3.2,1.4-6.2,1.2-7.5c-16.2-5.5-32.4-11-48.7-16.6
			c-0.8-18.1-1.3-36.6-1.4-55.5C325.2,191,325.2,180,325.3,169.3z"/>
		<g>
			<path class="st9" d="M325.4,174.5c-0.4,27,0.1,54,1.7,80.9"/>
		</g>
		<g>
			<path class="st9" d="M330.2,258.3c15,5.6,30,10.9,45.2,15.9"/>
		</g>
		<g>
			<path class="st9" d="M280.4,221.9c4,19.4,9.3,38.6,15.6,57.5c0.7,2.1,1.5,4.2,3,5.8c2.3,2.4,5.9,3.1,9.2,3.5
				c20.6,2.4,41.3-0.4,61.8-3.2"/>
		</g>
		<g>
			<path class="st9" d="M375.6,275.9c-0.1,3.7-1.7,7.4-4.4,9.9"/>
		</g>
		<g>
			<path class="st9" d="M372.3,285c4.3,5.6,9.8,10.4,16.3,13.1c6.5,2.7,14.1,3.1,20.6,0.5"/>
		</g>
		<g>
			<g>
				<path class="st3" d="M376.9,275.1c4.2,0.4,8.5,0.9,12.7,1.6c3.8,0.6,8.5,0.9,11.2,3.8c0.3,0.4,0.9-0.2,0.5-0.5
					c-2.6-2.7-6.2-3.1-9.8-3.7c-4.9-0.9-9.8-1.5-14.7-1.9C376.5,274.3,376.5,275.1,376.9,275.1L376.9,275.1z"/>
			</g>
		</g>
		<g>
			<g>
				<path class="st3" d="M391.4,282c3.4,0.5,6.6,0,9.6-1.6c0.4-0.2,0.1-0.9-0.4-0.6c-2.8,1.4-5.9,1.9-9,1.5
					C391.1,281.2,390.9,281.9,391.4,282L391.4,282z"/>
			</g>
		</g>
		<g>
			<g>
				<path class="st3" d="M396.7,282.4c2.6,3.9,6.1,7.1,10.2,9.5c0.4,0.2,0.8-0.4,0.4-0.6c-4-2.3-7.4-5.4-9.9-9.2
					C397.1,281.7,396.4,282,396.7,282.4L396.7,282.4z"/>
			</g>
		</g>
		<g>
			<g>
				<path class="st3" d="M396.5,282c4.6,3.7,9.5,7,14.7,9.7c0.4,0.2,0.8-0.4,0.4-0.6c-5.2-2.7-10.1-5.8-14.6-9.5
					C396.7,281.1,396.1,281.7,396.5,282L396.5,282z"/>
			</g>
		</g>
		<g>
			<g>
				<path class="st3" d="M388.6,291c5.8,3.8,12.1,6.4,18.9,7.9c0.5,0.1,0.7-0.6,0.2-0.7c-6.7-1.5-13-4.1-18.7-7.9
					C388.6,290.1,388.2,290.7,388.6,291L388.6,291z"/>
			</g>
		</g>
		<g>
			<g>
				<path class="st3" d="M398.8,296.1c4.3,1.5,8.7,2.1,13.3,1.8c0.5,0,0.5-0.8,0-0.8c-4.5,0.3-8.9-0.3-13.1-1.8
					C398.6,295.2,398.4,295.9,398.8,296.1L398.8,296.1z"/>
			</g>
		</g>
		<g>
			<g>
				<path class="st3" d="M400.6,289.7c3.9,2.4,7.8,4.9,11.7,7.4c0.4,0.3,0.8-0.4,0.4-0.6c-3.9-2.5-7.8-5-11.7-7.4
					C400.5,288.8,400.1,289.4,400.6,289.7L400.6,289.7z"/>
			</g>
		</g>
		<g>
			<g>
				<path class="st3" d="M396.8,290.6c5,2.7,10.1,5.2,15.4,7.4c0.4,0.2,0.6-0.5,0.2-0.7c-5.2-2.2-10.3-4.6-15.2-7.3
					C396.7,289.7,396.4,290.3,396.8,290.6L396.8,290.6z"/>
			</g>
		</g>
		<g>
			<g>
				<path class="st3" d="M402.4,290.2c2.7,1.3,5.6,2.2,8.6,2.6c0.5,0.1,0.5-0.7,0-0.8c-2.9-0.4-5.6-1.2-8.2-2.5
					C402.3,289.4,402,290,402.4,290.2L402.4,290.2z"/>
			</g>
		</g>
	</g>
	<g id="torso_1_">
		<path class="st8" d="M233.8,111.7c-2.3,4.2-5.3,8.9-9.2,13.7c-2.4,3-4.8,5.5-7.1,7.8c-1.9,3.7-4.5,8.6-7.4,14.6
			c-2.2,4.6-9.3,19.4-15.3,35.1c-8.8,23.2-14.1,45.4-17.1,60.2c1.1,1.8,2.8,4.2,5,7c2.5,3.1,12.2,14.7,29.5,22.5
			c4.2,1.9,13.4,5.6,25.8,6.9c5.6,0.6,10.3,0.5,13.9,0.3c1.4-3.2,3.6-8.2,6.9-14c6-10.6,11.3-16.4,19.2-26.6
			c4.6-5.9,8.5-11.5,16.4-22.8c7.6-10.8,17.8-26.2,29.3-46.1c-1.9-2.2-4.3-4.9-7.3-8c-2.8-2.9-8.4-8.5-15.9-14.7
			c-11-9.1-20.9-15.2-26.6-18.5C264.1,123.5,250.7,116.9,233.8,111.7z"/>
		<g>
			<path class="st9" d="M233.8,111.7c34.7,10.6,66.2,31.2,89.8,58.6"/>
		</g>
		<g>
			<path class="st9" d="M317.9,181.8c-14.7,22.3-30.1,44.2-46.1,65.7c-7.2,9.7-14.6,19.3-19.6,30.3"/>
		</g>
		<g>
			<path class="st9" d="M217.5,133.7c-18.8,34.1-32.3,71.1-39.8,109.4"/>
		</g>
		<g>
			<path class="st9" d="M179.3,245.6c15.5,22.3,43,35.7,70.1,34.2"/>
		</g>
	</g>
	<g id="hand_right_1_">
		<path class="st7" d="M156,84.3c0.7-1.4-0.2-2.9-1.7-6.5c-2.7-6.2-1.2-4.5-4.4-12.1c-1.7-4.2-3.6-8.2-6.4-12.5
			c-2.1-3.3-2.8-3.8-3.1-3.7c-0.8,0.3,0,4.1,0.8,7.4c-0.6,0.9-1.3,1.9-1.9,2.8c-0.5,0.4-1.1,1-1.8,1.7c-1,1-1.5,1.5-1.9,2.2
			c-1.2,2-0.9,4.3-0.8,4.8c0.2,1.4,0.8,2.2,1.4,3.4c0.5,0.9,1.7,2.8,3.9,4.3c1.2,0.8,1.7,0.8,2.2,1.6c0.9,1.2,0.7,2.3,0.9,3.6
			c0.2,1.3,1,3.1,3.3,5C148.6,86.4,154.7,87,156,84.3z"/>
		<path class="st8" d="M228.9,112.1c1.7-0.1,3.4-0.2,5.1-0.3c0.8,2.4,1.8,5.8,2.4,9.9c0.8,5.3,1.9,12.8-0.9,20.7
			c-3.5,9.8-11.4,15.1-14.9,17.2c-13.8,5.8-21,8.6-24.9,10.2c-3.3,1.3-5.6,2.1-9.4,3.8c-3.5,1.6-4.1,2-6.5,2.8
			c-3.4,1.1-3.8,0.7-8.1,2.1c-2.2,0.7-3.1,1.1-5.1,1.5c-1.7,0.3-3.2,0.6-5.1,0.2c-2-0.4-3.4-1.4-4.2-2.1c-0.5-1.3-1.1-3.3-1.8-5.8
			c-1.7-6.3-1.9-10.4-2.6-17.1c-0.8-7.6-0.8-4.9-2.6-19.5c-0.2-2-0.9-7.5-1.7-15.1c-0.9-8.5-2.1-20.1-3.3-34.6
			c0.7-0.9,1.9-2.2,3.7-3.3c2.5-1.5,4.9-1.6,6.1-1.7c0.7,2.1,1.7,5.2,3.1,9c3.2,8.4,5.9,13.8,9.4,21.1c2.3,4.8,5.7,12,9.6,20.9
			c4.1-1.6,8.1-3.3,12.3-4.9C202.8,121.9,215.9,116.9,228.9,112.1z"/>
		<g>
			<path class="st9" d="M228.9,112.1c-16.7,6.9-33.6,13.2-50.7,19.1"/>
		</g>
		<g>
			<path class="st9" d="M180.6,138.8c-9.1-18.5-17.6-37.3-25.3-56.4"/>
		</g>
		<g>
			<g>
				<path class="st3" d="M153.9,81.1c-3.6,0.1-6.7,1.8-8.8,4.7c-0.3,0.4,0.4,0.8,0.6,0.4c1.9-2.7,4.9-4.2,8.2-4.3
					C154.3,81.9,154.3,81.1,153.9,81.1L153.9,81.1z"/>
			</g>
		</g>
		<g>
			<path class="st9" d="M145.7,88.8c2.2,28.6,5.6,57.2,10.2,85.5"/>
		</g>
		<g>
			<path class="st9" d="M157.4,178c1.8,2.5,5.4,2.4,8.4,1.8c9.4-1.8,18.4-5.4,27.3-9c9.2-3.7,18.3-7.5,27.5-11.2"/>
		</g>
		<g>
			<g>
				<path class="st3" d="M146.9,67.1c-1.2-0.4-2.6-0.3-3.8,0.2c-0.8,0.4-2.1,1.3-2.1,2.4c0,1.2,1.6,2.2,2.5,2.8
					c1.3,0.8,2.8,1.3,4.4,1.4c0.5,0,0.5-0.7,0-0.8c-1.8-0.2-4.4-0.9-5.5-2.5c-0.8-1.1,0-2.1,1.1-2.7c1-0.5,2.1-0.5,3.2-0.2
					C147.2,68,147.4,67.2,146.9,67.1L146.9,67.1z"/>
			</g>
		</g>
		<g>
			<g>
				<path class="st3" d="M146.9,73.7c0.5,1.7,1.5,3,2.9,4c0.4,0.3,0.8-0.4,0.4-0.6c-1.2-0.9-2.1-2.1-2.6-3.6
					C147.4,73,146.7,73.2,146.9,73.7L146.9,73.7z"/>
			</g>
		</g>
		<g>
			<path class="st9" d="M155.4,81.8c-2.9-11.2-7.6-22-13.8-31.8"/>
		</g>
		<g>
			<g>
				<path class="st3" d="M140.2,50.3c-0.9,1.3-0.5,2.8-0.2,4.2c0.5,2.4,1.3,4.8,2.1,7.1c0.2,0.5,0.9,0.3,0.7-0.2
					c-0.6-1.6-1.1-3.2-1.5-4.8c-0.4-1.6-1.6-4.4-0.5-5.9C141.1,50.3,140.5,49.9,140.2,50.3L140.2,50.3z"/>
			</g>
		</g>
		<g>
			<g>
				<path class="st3" d="M140.1,58.2c-1.1,2.5,0,5,1.2,7.3c0.2,0.4,0.9,0,0.6-0.4c-1-2-2.2-4.2-1.2-6.5
					C141,58.2,140.3,57.8,140.1,58.2L140.1,58.2z"/>
			</g>
		</g>
		<g>
			<g>
				<path class="st3" d="M139.3,59.3c-3.3-0.4-2.3,5.1-1.6,6.8c0.2,0.4,0.8,0.1,0.6-0.4c-0.5-1.1-1.5-5.9,1-5.7
					C139.7,60.1,139.7,59.4,139.3,59.3L139.3,59.3z"/>
			</g>
		</g>
		<g>
			<g>
				<path class="st3" d="M136.4,62.1c-2.6,1.9-1.7,5.1,0.2,7.2c0.3,0.4,0.9-0.2,0.5-0.5c-1.5-1.6-2.5-4.4-0.3-6
					C137.2,62.5,136.8,61.8,136.4,62.1L136.4,62.1z"/>
			</g>
		</g>
		<g>
			<g>
				<path class="st3" d="M134.6,67.1c-0.9,2.3,0.6,4.3,2.1,5.9c0.3,0.4,0.9-0.2,0.5-0.5c-1.3-1.4-2.8-3.1-1.9-5.1
					C135.5,66.9,134.8,66.7,134.6,67.1L134.6,67.1z"/>
			</g>
		</g>
		<g>
			<path class="st9" d="M137.1,72.4c0.5,1.5,1.6,2.8,3,3.6c0.7,0.4,1.4,0.6,1.9,1.2c0.5,0.6,0.6,1.4,0.7,2.2c0.4,2,1.3,3.8,2.6,5.3"
				/>
		</g>
	</g>
	<g id="head_1_">
		<path class="st3" d="M305.7,127.6c0.4-1.7,0.8-4.1,0.8-7c0-4.8-1.1-8.4-1.7-10.1c-1.4-4-2.3-6.7-4.9-9c-5.7-5-13.7-3-14.5-2.8
			c-1.8,0.5-7.7,2-9.7,7.1c-1.3,3.4-0.2,6.8,0.2,7.9c0.5,1.5,1.2,3.5,3.2,5c2.2,1.6,4.7,1.4,7.2,1.3c1.8-0.1,4.9-0.6,8.4-2.4
			c0.3,1.2,1.9,6.2,6.8,8.7C302.9,127.1,304.5,127.4,305.7,127.6z"/>
		<path class="st7" d="M281.3,119.8c-0.8,0.9-1.9,2.5-2.7,4.6c-0.5,1.3-2.4,7.2,1.1,12.2c2.2,3.2,5.4,4.4,6.7,4.8
			c-0.3,0.9-0.5,1.7-0.8,2.6c-2.1-0.8-4.3-0.3-5.4,1.2c-0.8,1-1,2.4-0.6,3.5c0.8,2.8,4.8,3.5,6,3.7c2.6,0.4,4.5-0.2,5.8-0.6
			c1.8-0.6,4.1-1.3,4.8-3.3c0.3-0.9,0.3-1.7,0.2-2.3c-0.6-0.2-1.3-0.3-1.9-0.5c0.4-1.4,0.8-2.9,1.2-4.3c1-0.7,2.2-1.6,3.5-2.8
			c0.6-0.6,2-1.9,3.2-3.6c1-1.4,2.6-4,3.3-8.2c-1.1-0.9-2.3-2-3.5-3.1c-2.6-2.5-4.5-5.1-6-7.3c-1.6,0.8-3.6,1.6-6.1,2.3
			C286.4,119.6,283.5,119.8,281.3,119.8z"/>
		
			<ellipse transform="matrix(0.4627 -0.8865 0.8865 0.4627 49.1441 327.9207)" class="st3" cx="295.1" cy="123.4" rx="1.7" ry="0.8"/>
		<g>
			<path class="st9" d="M281.4,120.4c-3.4,3.1-4.8,8.3-3.4,12.7s5.4,7.9,9.9,8.7c4.6,0.7,9.3-1.2,12.5-4.6c1.6-1.7,2.8-3.7,3.3-5.9"
				/>
		</g>
		<g>
			<g>
				<path class="st3" d="M286.5,141.7c-0.4,0.7-0.9,1.4-1.3,2.2c-0.2,0.4,0.4,0.8,0.6,0.4c0.4-0.7,0.9-1.4,1.3-2.2
					C287.4,141.7,286.8,141.3,286.5,141.7L286.5,141.7z"/>
			</g>
		</g>
		<g>
			<path class="st9" d="M281.7,144.1c-1.1,0.4-2,1.4-2.3,2.6c-0.3,1.2,0,2.4,0.8,3.3c0.6,0.7,1.5,1.1,2.3,1.5
				c3.4,1.3,7.3,1.1,10.6-0.5c1.7-0.8,3.3-2.3,3.5-4.2"/>
		</g>
		<g>
			<g>
				<path class="st3" d="M281.4,119.5c-6.7-2.9-7.7-10.9-3.1-16.2c3.9-4.5,10.8-5.9,16.4-4.3c10.7,3.1,12.2,18.5,10.7,27.6
					c-0.1,0.5,0.6,0.7,0.7,0.2c2-12.3-1.8-30.2-17.5-29.1c-5.6,0.4-11.1,3.4-13.3,8.9c-2.1,5.5,0.3,11.2,5.7,13.5
					C281.5,120.3,281.9,119.7,281.4,119.5L281.4,119.5z"/>
			</g>
		</g>
		<g>
			<g>
				<path class="st3" d="M281.6,120c5.1,0.5,9.8-1.3,14.4-3.2c0.4-0.2,0.1-0.8-0.4-0.6c-4.5,1.9-9,3.7-14,3.1
					C281.1,119.2,281.1,119.9,281.6,120L281.6,120z"/>
			</g>
		</g>
		<g>
			<g>
				<path class="st3" d="M295.4,116.2c1.9,4.6,6,7.7,9.7,10.9c0.4,0.3,0.9-0.2,0.5-0.5c-3.5-3.1-7.6-6.1-9.5-10.6
					C296,115.6,295.2,115.7,295.4,116.2L295.4,116.2z"/>
			</g>
		</g>
		<g>
			<g>
				<path class="st3" d="M290.3,119.9c-2.9,2-4.9,4.9-5.9,8.3c-0.1,0.5,0.6,0.7,0.7,0.2c0.9-3.2,2.8-5.9,5.5-7.8
					C291.1,120.2,290.7,119.6,290.3,119.9L290.3,119.9z"/>
			</g>
		</g>
	</g>
	<g id="tab">
		<polygon class="st10" points="90.1,0 45.8,140.3 189,229 241.9,65.3 		"/>
		<circle class="st6" cx="97.5" cy="22.6" r="4.5"/>
		<circle class="st11" cx="73" cy="102.3" r="4.2"/>
		<line class="st12" x1="111.8" y1="24.6" x2="210.2" y2="59.6"/>
		<line class="st12" x1="88.6" y1="42.1" x2="203.5" y2="83.8"/>
		<line class="st12" x1="97.5" y1="62.9" x2="200.1" y2="98.1"/>
		<line class="st12" x1="85" y1="77.4" x2="193.9" y2="118.1"/>
		<line class="st12" x1="89.2" y1="102.3" x2="200.1" y2="141"/>
		<line class="st12" x1="90.5" y1="116.1" x2="155.4" y2="141"/>
		<line class="st12" x1="74.8" y1="126.7" x2="179.3" y2="174.3"/>
	</g>
</g>
<g id="girl">
	<g id="leg_right">
		<path class="st13" d="M338.3,517.1c-27.9,13.3-41.4,21.5-40.3,24.6c1.3,3.8,23.9,0.2,67.8-10.8c-0.9-6.2-1.8-12.3-2.7-18.5
			C354.9,513.9,346.6,515.5,338.3,517.1z"/>
		<g>
			<g>
				<path class="st6" d="M335.3,521.5c-1-0.6-1.9-1.3-2.7-2.2c-0.7-0.9-2.2-3.1-0.5-3.7c2.9-1,2.9,4.7,3,6.2c0,0.5,0.8,0.5,0.8,0
					c-0.2-1.8-0.1-4.3-1.2-5.9c-0.7-1-2-1.5-3.1-1c-3.3,1.5,1.7,6.3,3.3,7.2C335.3,522.4,335.7,521.8,335.3,521.5L335.3,521.5z"/>
			</g>
		</g>
		<g>
			<g>
				<path class="st6" d="M335.1,522.1c1.9-1.7,5.8-2.5,7.9-0.5c1,0.5,0.8,1.3-0.6,2.4c-0.2-0.1-0.4-0.1-0.7-0.2
					c-0.6-0.1-1.3-0.4-1.9-0.6c-1.4-0.5-2.8-1.3-4.2-1.9c-0.4-0.2-0.8,0.4-0.4,0.6c2.3,1.2,5,2.7,7.7,2.9c1.6,0.1,2.6-0.9,1.8-2.5
					c-1.8-3.7-7.6-3-10.1-0.8C334.3,521.9,334.8,522.4,335.1,522.1L335.1,522.1z"/>
			</g>
		</g>
		<g>
			<g>
				<path class="st6" d="M325.8,522.7c3.1-0.5,6.1,1.2,7.4,4.1c0.2,0.4,0.8,0.1,0.6-0.4c-1.5-3.2-4.8-5-8.3-4.4
					C325.2,522,325.4,522.7,325.8,522.7L325.8,522.7z"/>
			</g>
		</g>
		<g>
			<g>
				<path class="st6" d="M323.7,525.2c2.4,0.2,4.6,1.4,5.9,3.5c0.3,0.4,0.9,0,0.6-0.4c-1.5-2.3-3.8-3.7-6.5-3.9
					C323.2,524.5,323.2,525.2,323.7,525.2L323.7,525.2z"/>
			</g>
		</g>
		<g>
			<g>
				<path class="st6" d="M319.4,527.9c1.7,0.2,3.1,1.2,3.9,2.7c0.2,0.4,0.9,0,0.6-0.4c-0.9-1.6-2.5-2.8-4.4-3
					C319.1,527.1,318.9,527.8,319.4,527.9L319.4,527.9z"/>
			</g>
		</g>
		<g>
			<g>
				<path class="st6" d="M316.4,530.8c1.3,0.1,2.5,0.7,3.4,1.7c0.3,0.4,0.9-0.2,0.5-0.5c-1-1.1-2.4-1.8-3.9-1.9
					C315.9,530,315.9,530.7,316.4,530.8L316.4,530.8z"/>
			</g>
		</g>
		<g>
			<g>
				<path class="st6" d="M338,535.7c8.3-1.8,16.5-4,24.7-6.6c0.5-0.1,0.3-0.9-0.2-0.7c-8.1,2.6-16.3,4.7-24.7,6.6
					C337.3,535.1,337.5,535.8,338,535.7L338,535.7z"/>
			</g>
		</g>
		<path class="st8" d="M421.2,365.1c-4,0.6-9.9,1.5-17.2,2.6c-27.1,4.1-40.7,6.2-54.1,9c-9.1,1.9-22.3,5-38,9.8
			c-1.2,1.5-2.9,3.8-4.1,7c-1.9,5.1-1.5,9.6-0.6,15.9c1.8,12.2,3.9,19.6,3.9,19.6c3.7,13.4,5.5,20.2,7.6,26.1
			c4.8,14.2,11.1,34.1,19.7,62c1.6,1.2,4.7,3.2,9.1,3.6c8.8,1,15.1-5.2,16-6.1c-0.6-7-1.1-14.2-1.5-21.5c-1.2-22-1.2-42.9-0.4-62.6
			c5.8-0.1,14-0.2,23.7-0.7c11.1-0.5,19.5-1.1,31.3-2.1c7.5-0.6,17.3-1.4,28.9-2.5c2.3-2.8,9.9-12.8,8.8-26.1
			C452.8,383.4,439.6,369.3,421.2,365.1z"/>
		<g>
			<path class="st9" d="M310,387c33.7-10.1,68.4-16.9,103.4-20.3"/>
		</g>
		<g>
			<path class="st9" d="M308.5,390.3c-3.8,14.3,0,29.4,4,43.6c7.9,27.9,16.9,55.5,25.9,83.1"/>
		</g>
		<g>
			<path class="st9" d="M361.5,423.6c-1.2,30.4-0.6,60.8,1.9,91.1"/>
		</g>
		<g>
			<path class="st9" d="M340.8,519c5.7,3.2,13.6,1.7,17.8-3.3"/>
		</g>
		<g>
			<path class="st9" d="M363.1,431c25.7-1.2,51.3-2.9,76.9-5.1"/>
		</g>
	</g>
	<g id="leg_left">
		<path class="st13" d="M518.7,540.7c0.2,3.7,0.4,7.3,0.7,11c-3.7,13.1-4.6,20.1-2.6,21c2.6,1.2,10.3-8.3,23.1-28.6
			c-3.1-4-6.2-8-9.2-12C526.6,535,522.6,537.9,518.7,540.7z"/>
		<g>
			<g>
				<path class="st6" d="M520.5,545c-1.4,0-2.5,0.6-3.5,1.5c-0.7,0.6-1.9,1.7-1.4,2.7c0.4,0.9,1.5,0.7,2.2,0.4
					c1.3-0.5,2.3-1.5,3.1-2.6c0.3-0.4-0.4-0.8-0.6-0.4c-0.5,0.8-1.2,1.4-1.9,1.9c-0.5,0.3-2.5,1.3-1.9-0.3c0.2-0.6,1.2-1.3,1.8-1.7
					c0.7-0.5,1.5-0.8,2.4-0.8C521,545.8,521,545,520.5,545L520.5,545z"/>
			</g>
		</g>
		<g>
			<g>
				<path class="st6" d="M521.3,546c0.1-0.8,0.5-1.4,1.1-2c0.6-0.5,1.8-1.2,2.6-1.1c1.8,0.3,0.5,2.1-0.4,2.6
					c-0.7,0.4-1.5,0.6-2.3,0.6c-0.5,0-0.5,0.7,0,0.8c1.4,0.1,2.8-0.5,3.8-1.6c0.6-0.7,1.1-1.8,0.3-2.6c-0.9-0.9-2.3-0.4-3.3,0
					c-1.2,0.6-2.3,1.6-2.5,3C520.5,546.2,521.2,546.4,521.3,546L521.3,546z"/>
			</g>
		</g>
		<g>
			<g>
				<path class="st6" d="M518.8,551.5c0.6-1.1,2-1.2,3.1-1.3c0.5,0,0.5-0.8,0-0.8c-1.4,0.1-3,0.4-3.8,1.7
					C517.9,551.6,518.6,551.9,518.8,551.5L518.8,551.5z"/>
			</g>
		</g>
		<g>
			<g>
				<path class="st6" d="M518.3,553.8c1-1,2.4-1.3,3.7-0.8c0.4,0.2,0.6-0.5,0.2-0.7c-1.5-0.6-3.3-0.2-4.4,1
					C517.5,553.7,518,554.2,518.3,553.8L518.3,553.8z"/>
			</g>
		</g>
		<g>
			<g>
				<path class="st6" d="M517.1,557.2c1-0.9,2.3-1.3,3.6-1.1c0.5,0.1,0.7-0.6,0.2-0.7c-1.6-0.3-3.2,0.1-4.3,1.3
					C516.2,557.1,516.7,557.6,517.1,557.2L517.1,557.2z"/>
			</g>
		</g>
		<g>
			<g>
				<path class="st6" d="M516.7,560.4c0.8-1,2.2-1.3,3.3-0.7c0.4,0.2,0.8-0.4,0.4-0.6c-1.4-0.8-3.2-0.5-4.3,0.8
					C515.8,560.2,516.4,560.7,516.7,560.4L516.7,560.4z"/>
			</g>
		</g>
		<g>
			<g>
				<path class="st6" d="M516.3,564.1c0.4-0.7,1.3-1,2.1-0.6c0.4,0.2,0.8-0.4,0.4-0.6c-1.1-0.6-2.5-0.2-3.1,0.8
					C515.4,564.1,516,564.5,516.3,564.1L516.3,564.1z"/>
			</g>
		</g>
		<g>
			<g>
				<path class="st6" d="M536.8,543.5c-6.3,8.6-12.2,17.4-17.9,26.5c-0.3,0.4,0.4,0.8,0.6,0.4c5.7-9,11.7-17.8,17.9-26.5
					C537.8,543.4,537.1,543.1,536.8,543.5L536.8,543.5z"/>
			</g>
		</g>
		<path class="st8" d="M493.1,393.2c-0.2,2.6-0.6,6.6-1,11.5c-1.5,19-2.5,32.5-2.6,49.2c0,3.8,0,9.4,0.3,16.3
			c3.7,5.8,7.4,11.7,11.2,17.6c10,15.5,20,30.6,30,45.3c-0.9,1.4-2.4,3.1-4.5,4.8c-2.6,2.1-5.3,3.2-7,3.8
			c-10-5.5-18.1-9.8-23.6-12.8c-7.5-4-11.2-6-18.8-10.2c-6-3.3-10.6-5.9-16.3-9.9c-5-3.5-7.6-5.4-10.2-8.6c-2.5-3-4.1-6.2-7-14.7
			c-3.6-10.7-4.3-15.6-7.7-27.1c-2.9-9.9-2.8-7.8-5.1-16.3c-2.8-10.2-4.4-18.5-6.4-28.7c-1.3-6.6-2.2-12.1-2.9-16.3
			c3.2-5.2,8-10.9,15.3-14.7C453.2,373.9,475.3,378.3,493.1,393.2z"/>
		<g>
			<path class="st9" d="M493,396.2c-2.1,24.6-3.2,49.3-3.5,74"/>
		</g>
		<g>
			<path class="st9" d="M489.8,469.7c12.9,21,26.4,41.7,40.4,61.9"/>
		</g>
		<g>
			<g>
				<path class="st6" d="M422.6,407c5.7,26.7,12.7,53.1,21.2,79c0.1,0.5,0.9,0.3,0.7-0.2c-8.4-25.9-15.5-52.3-21.2-79
					C423.2,406.3,422.5,406.5,422.6,407L422.6,407z"/>
			</g>
		</g>
		<g>
			<path class="st9" d="M446,491.8c4.6,10.1,14.3,16.8,23.7,22.7c15.8,9.8,32.1,18.5,49,26.2"/>
		</g>
		<g>
			<g>
				<path class="st3" d="M521,541.3c4.1-0.4,7.6-3.3,8.6-7.4c0.1-0.5-0.6-0.7-0.7-0.2c-0.9,3.7-4.1,6.5-7.9,6.9
					C520.5,540.6,520.5,541.4,521,541.3L521,541.3z"/>
			</g>
		</g>
	</g>
	<g id="torso">
		<path class="st14" d="M439.3,231.2c-0.6,4.5-1.3,9.1-1.9,13.6c-0.9,2.8-2.2,6.8-3.5,11.7c-2.9,10.5-4.5,18.7-8.6,44.7
			c-4.9,31.2-5.7,39.2-6.2,45.1c-0.7,7.9-1.1,14.5-1.3,19.1c1.3,2.1,3.3,4.8,6.1,7.7c2.3,2.3,5.1,4.8,9.9,7.8
			c3.6,2.3,11,6.5,21.4,9.9c2.6,0.9,11.9,3.8,24.5,4.9c5.2,0.5,9.6,0.5,13,0.4c1.4-3.8,3.5-9.4,6-16.1c4-10.7,6.1-16,8.2-21
			c5.1-12.1,6.1-12.2,12.6-26.8c4.4-9.8,7.4-17.5,9.7-23.3c3.8-9.7,7.2-19,10.1-27.8c-3-3.2-7.2-7.2-12.3-11.7
			c-3.4-3-10.1-8.8-19.1-14.6c-4.3-2.8-17.1-10.8-35.6-16.7C464.1,235.3,452.8,232.4,439.3,231.2z"/>
		<g>
			<path class="st9" d="M438.7,231.8c5-0.4,10.1,0.3,15,1.4c30.7,6.3,59.5,21.6,81.9,43.5"/>
		</g>
		<g>
			<g>
				<path class="st6" d="M436.8,245c-10.7,38.6-17,78.3-18.6,118.3c0,0.5,0.7,0.5,0.8,0c1.6-40,7.9-79.6,18.6-118.1
					C437.6,244.7,436.9,244.5,436.8,245L436.8,245z"/>
			</g>
		</g>
		<g>
			<path class="st9" d="M420.6,370.5c19.5,17.4,45.9,26.7,72,25.3"/>
		</g>
		<g>
			<path class="st9" d="M536.2,291c-11.9,35.7-31.7,68.4-43,104.3"/>
		</g>
	</g>
	<g id="hand_left">
		<path class="st7" d="M498.6,421.6c-2.4,4.2-3.4,8-3.9,10.7c-0.2,1.2-1.1,6.4,0.2,6.8c1,0.4,2.9-2.4,4-4c1.4,1.2,2.8,2.5,4.2,4
			c4.3,4.5,7.2,9.2,9.3,13.1c1.3-0.6,2.8-1.4,4.4-2.5c2.6-1.8,4.4-3.7,5.6-5.3c-1.8-3.1-3.3-5.7-4.2-7.4c-3.8-6.9-5.7-10.4-6.7-12.4
			c-2.1-4.8-2.2-6.3-3.9-7C504.9,416.6,501.2,419.3,498.6,421.6z"/>
		<path class="st14" d="M534.4,277c-3.8-0.9-6.8-0.7-9.1-0.2c-11.4,2.3-20.4,14.5-23.5,30.6c3.6,10.9,7,22.8,9.9,35.7
			c2.2,9.4,3.9,18.4,5.3,27c-0.7,2.2-1.7,5.4-3,9.3c-3.3,9.5-5.7,15-8.5,22.3c-1.9,4.9-4.5,11.9-7.3,20.5c1.1,0.6,2.6,1.4,4.7,1.8
			c3.4,0.7,6.3,0,7.7-0.4c1.4-2.3,4.1-6.4,7.5-11.4c8.7-12.7,13.5-18,22.7-31.2c1.8-2.6,4.8-6.9,8.3-12.4
			c0.2-10.5-0.2-19.2-0.6-25.3c-0.1-1.6-0.1-1.1-2.4-22.5c-0.8-7.2-2.1-14.4-2.8-21.7c-0.5-4.8-0.9-9-3.2-14
			C538.2,281.4,536,278.7,534.4,277z"/>
		<g>
			<path class="st9" d="M537,279.8c3.4,3.9,4.4,9.3,5.3,14.4c4.1,23.8,6.5,47.8,6.9,71.9"/>
		</g>
		<g>
			<g>
				<path class="st6" d="M501.3,307c6.7,20.4,11.9,41.2,15.5,62.3c0.1,0.5,0.8,0.3,0.7-0.2c-3.6-21.1-8.8-42-15.5-62.3
					C501.9,306.3,501.2,306.5,501.3,307L501.3,307z"/>
			</g>
		</g>
		<g>
			<path class="st9" d="M516.8,370.9c-6.5,16.7-12.6,33.6-18.2,50.7"/>
		</g>
		<g>
			<path class="st9" d="M499.1,422.5c2.1,1.6,4.9,2.1,7.4,1.6"/>
		</g>
		<g>
			<path class="st9" d="M510.3,422.8c12.8-17.7,25.6-35.5,38.4-53.2"/>
		</g>
		<g>
			<path class="st9" d="M498.1,423.3c-2.2,4.6-3.5,9.6-3.8,14.7c0,0.3,0,0.6,0.1,0.9c0.3,0.6,1.1,0.6,1.7,0.3s0.8-1,1-1.5
				c0.3-0.9,0.6-1.7,0.9-2.6"/>
		</g>
		<g>
			<path class="st9" d="M510.4,423.5c4.7,6.6,9.4,13.3,11.5,21.1"/>
		</g>
		<g>
			<g>
				<path class="st3" d="M498.7,436.1c5.3,4.2,9.7,9.3,13.1,15.2c0.2,0.4,0.9,0,0.6-0.4c-3.4-5.9-7.8-11.1-13.2-15.3
					C498.8,435.2,498.3,435.8,498.7,436.1L498.7,436.1z"/>
			</g>
		</g>
		<g>
			<g>
				<path class="st3" d="M507.3,439.6c3,3,5.2,6.6,6.6,10.6c0.2,0.5,0.9,0.3,0.7-0.2c-1.5-4.1-3.7-7.8-6.8-10.9
					C507.5,438.7,507,439.2,507.3,439.6L507.3,439.6z"/>
			</g>
		</g>
		<g>
			<g>
				<path class="st3" d="M511.3,438.7c2.5,3.2,4.2,6.7,5.1,10.7c0.1,0.5,0.8,0.3,0.7-0.2c-0.9-4.1-2.7-7.7-5.3-11
					C511.5,437.8,511,438.3,511.3,438.7L511.3,438.7z"/>
			</g>
		</g>
		<g>
			<g>
				<path class="st3" d="M515,439.7c2.2,2.7,3.3,5.9,3.3,9.3c0,0.5,0.8,0.5,0.8,0c0-3.7-1.2-7-3.5-9.9
					C515.2,438.8,514.7,439.3,515,439.7L515,439.7z"/>
			</g>
		</g>
		<g>
			<g>
				<path class="st3" d="M517.5,439.5c1.6,2.3,2.4,4.8,2.5,7.5c0,0.5,0.8,0.5,0.8,0c-0.1-2.9-0.9-5.6-2.6-7.9
					C517.9,438.7,517.2,439.1,517.5,439.5L517.5,439.5z"/>
			</g>
		</g>
	</g>
	<g id="hand_right">
		<path class="st7" d="M389.9,271.2c-1.1,1.5-2.7,3.5-4.7,5.9c-1.3,1.7-1.8,2.2-2.5,3.2c-1.4,2-4,6.5-3.1,7.3c0.8,0.7,4.1-1.6,5-2.2
			c2.3-1.7,3.9-3.5,4.8-4.8c-0.8,1.1-1.9,2.9-2.6,5.2c-1,3.2-0.7,6-0.5,7.6c0.7,0.2,1.8,0.3,3.1,0c1.2-0.3,2-0.8,4.1-2.5
			c1.1-0.9,2.6-2.2,4.2-3.7c-0.3,1.4-0.6,3.2-0.6,5.3c0,1.3,0.1,2.5,0.3,3.6c1-0.3,3.3-1.2,5.3-3.4c2.2-2.5,2.7-5.3,2.9-6.3
			c0.2-0.4,0.4-0.8,0.7-1.2c-1.2-2.1-3.1-5-6.2-7.8C396.2,274,392.4,272.2,389.9,271.2z"/>
		<path class="st14" d="M437.8,231.9c-1.3-0.1-2,0.6-5.8,3.7c-9.3,7.5-6.6,4.4-15,11.3c-7,5.8-13.4,11.1-20.6,19.3
			c-2.3,2.6-4.1,4.8-5.3,6.3c2.4,0.8,4.4,1.8,5.8,2.6c2.3,1.3,4.7,2.8,6.6,5.5c1.4,2,2.1,4.1,2.4,5.5c-0.4,1.5-0.9,3-1.3,4.5
			c2.3,1.1,4.6,2.1,6.9,3.2c1.6-0.6,4.1-1.6,7.1-2.6c4.8-1.7,8.1-2.6,9-2.9c6.7-2.1,13.6-10.2,16.9-17.7
			C451.8,254,444.2,232.6,437.8,231.9z"/>
		<g>
			<path class="st9" d="M436.1,233c-15.2,9.4-28.9,21-40.6,34.5"/>
		</g>
		<g>
			<path class="st9" d="M412.2,293.3c4.6-1,9-2.4,13.3-4.3"/>
		</g>
		<g>
			<path class="st9" d="M389.8,271.4c-4.4,4.7-8.9,9.7-10.1,15.9"/>
		</g>
		<g>
			<g>
				<path class="st3" d="M391.4,273.1c2.6,0.4,5.4,2.4,7.5,3.8c2.7,1.9,4.9,4.2,6,7.4c0.2,0.4,0.9,0.3,0.7-0.2c-1.1-3-3-5.3-5.5-7.2
					c-2.4-1.8-5.6-4.1-8.6-4.6C391.1,272.3,390.9,273.1,391.4,273.1L391.4,273.1z"/>
			</g>
		</g>
		<g>
			<path class="st9" d="M405.7,286.4c-1.1,4-3.9,7.6-7.6,9.6"/>
		</g>
		<g>
			<g>
				<path class="st3" d="M381.2,287.4c3.5-0.5,6.6-4.3,8.8-6.8c0.3-0.4-0.2-0.9-0.5-0.5c-2.1,2.5-5.1,6.2-8.5,6.6
					C380.5,286.8,380.7,287.5,381.2,287.4L381.2,287.4z"/>
			</g>
		</g>
		<g>
			<g>
				<path class="st3" d="M389.4,280.4c-2.5,3.6-3.7,7.8-3.7,12.2c0,0.5,0.8,0.5,0.8,0c-0.1-4.3,1.1-8.2,3.6-11.8
					C390.3,280.4,389.6,280,389.4,280.4L389.4,280.4z"/>
			</g>
		</g>
		<g>
			<g>
				<path class="st3" d="M387.2,294c2,0.1,4-1.2,5.6-2.2c2-1.3,3.8-2.8,5.4-4.5c0.3-0.4-0.2-0.9-0.5-0.5c-1.4,1.5-2.9,2.9-4.6,4
					c-1.6,1.1-3.8,2.6-5.8,2.5C386.7,293.3,386.7,294,387.2,294L387.2,294z"/>
			</g>
		</g>
		<g>
			<g>
				<path class="st3" d="M387.5,293c2.4-2.9,5.1-5.5,8-7.9c0.4-0.3-0.2-0.8-0.5-0.5c-2.9,2.4-5.6,5-8,7.9
					C386.7,292.8,387.2,293.4,387.5,293L387.5,293z"/>
			</g>
		</g>
		<g>
			<g>
				<path class="st3" d="M397.7,287.6c-0.9,2.6-1.4,5.3-1.3,8.1c0,0.5,0.8,0.5,0.8,0c0-2.7,0.4-5.3,1.3-7.9
					C398.6,287.4,397.9,287.2,397.7,287.6L397.7,287.6z"/>
			</g>
		</g>
	</g>
	<g id="head">
		<path class="st5" d="M472.7,228.6c-0.6-0.1-2.7-0.3-4.7-1.8c-2.6-2.1-3-5.3-3.1-5.7c-0.6-4.8,3.2-8.3,3.7-8.8
			c3.8-3.4,8.7-2.9,10.5-2.7c6.4,0.7,10.3,5,11.4,6.2c0.1-1,0.6-3.8,3-5.9c0.6-0.5,3.2-3,5.4-2.2c1.9,0.7,1.6,3,4,4.1
			c1.3,0.6,2.7,0.5,3.4,0.4c1.7-0.2,2.2-0.8,3.9-1.2c1.6-0.4,2.9-0.2,4.4,0c2.4,0.4,9.3,2.3,15.2,8.8c2.3,2.5,5.8,6.3,6.7,12.5
			c0.7,4.5-0.3,8.1-1,10.3c-0.7,2.2-2.9,9.6-9.5,13.8c-7.8,5-17.1,2.4-18.2,2.1C491.2,253.5,481.4,229.7,472.7,228.6z"/>
		<path class="st7" d="M472.7,228.4c-0.5,1.1-1.1,2.6-1.4,4.6c-0.3,2-0.9,5.3,0.9,8.6c1.5,2.9,4,4.3,4.7,4.7c1.8,1,3.6,1.3,4.6,1.4
			c-0.1,0.5-0.2,1.1-0.3,1.6c-1.3,0-2.4,0.7-2.7,1.6c-0.4,1.2,0.7,2.5,1.2,2.9c1.9,2,5,1.7,5.6,1.6c2.3-0.3,3.9-1.4,4.5-1.9
			c2.8-2.2,3.6-5.3,3.7-6.3c-1.6-0.7-3.2-1.3-4.7-2c0.4-0.3,0.9-0.8,1.4-1.4c0,0,1-1.1,1.7-2.4c0.9-1.6,2-5.5,1.9-10.5
			c-0.9-1.2-3-3.6-6.5-4.7c-2.9-1-5.3-0.7-7-0.4C476.8,226.2,474.2,227.5,472.7,228.4z"/>
		<ellipse class="st3" cx="482.5" cy="232.4" rx="0.8" ry="1.6"/>
		<g>
			<path class="st9" d="M472.7,229c-2.2,4-2.5,9.1-0.3,13.1s7.1,6.4,11.5,5.3c2.5-0.6,4.6-2.2,6.3-4.1c1.2-1.3,2.3-2.9,2.4-4.7"/>
		</g>
		<g>
			<g>
				<path class="st3" d="M480.8,248c0,0.5,0,1,0,1.4c0,0.5,0.8,0.5,0.8,0c0-0.5,0-1,0-1.4C481.6,247.5,480.8,247.5,480.8,248
					L480.8,248z"/>
			</g>
		</g>
		<g>
			<path class="st9" d="M479.1,249.9c-0.6,1-1.3,2.4-0.5,3.3c0.2,0.3,0.5,0.4,0.8,0.6c1.2,0.7,2.4,1.3,3.8,1.5
				c1.6,0.2,3.1-0.3,4.5-0.9c1.4-0.6,2.8-1.5,3.8-2.6c1-1.1,1.7-2.6,1.7-4.2"/>
		</g>
		<g>
			<g>
				<path class="st3" d="M478,230.8c-1.1,1.9-1.8,3.9-2.2,6c-0.1,0.5,0.6,0.7,0.7,0.2c0.4-2.1,1.1-4,2.1-5.8
					C478.9,230.8,478.3,230.4,478,230.8L478,230.8z"/>
			</g>
		</g>
		<g>
			<path class="st9" d="M472.2,228.5c-3.7,0-6.9-3.1-7.5-6.7s1.3-7.4,4.2-9.5s6.8-2.9,10.4-2.4c4.8,0.6,9.3,3.2,12.2,7.1
				s4,9.1,2.9,13.8"/>
		</g>
		<g>
			<path class="st9" d="M472.7,228.9c3.3-2.1,7.1-3.6,11-3.5s7.9,1.9,9.9,5.3c0.1,0.2,0.2,0.4,0.3,0.5"/>
		</g>
		<g>
			<path class="st9" d="M490.8,215.8c0.5-2.7,2.1-5.2,4.3-6.9c1.7-1.3,4.1-2,5.7-0.7c1.4,1.1,1.6,3.1,2.8,4.4
				c0.2,0.2,0.4,0.4,0.7,0.4c0.5,0.1,1-0.2,1.4-0.4c3.3-1.9,7.3-2.2,11-1.4c3.7,0.9,7,2.9,9.9,5.4c2,1.7,3.8,3.7,5.2,5.9
				c3.8,5.9,4.9,13.5,2.7,20.2c-2.1,6.7-7.4,12.3-13.9,14.9c-2.6,1-5.5,1.6-8.3,1.4c-4.9-0.4-9.3-3.2-13.1-6.3
				c-3.4-2.8-6.6-6.2-7.9-10.5"/>
		</g>
	</g>
</g>
</svg>
