<?xml version="1.0" encoding="utf-8"?>
<!-- Generator: Adobe Illustrator 23.0.3, SVG Export Plug-In . SVG Version: 6.00 Build 0)  -->
<svg version="1.1" xmlns="http://www.w3.org/2000/svg" xmlns:xlink="http://www.w3.org/1999/xlink" x="0px" y="0px"
	 viewBox="0 0 600 600" style="enable-background:new 0 0 600 600;" xml:space="preserve">
<style type="text/css">
	.st0{fill:none;stroke:#E5E5E5;stroke-width:2;stroke-miterlimit:10;}
	.st1{fill:#B7B7B7;}
	.st2{fill:#EB506E;}
	.st3{fill:#969696;}
	.st4{fill:#D6D6D6;}
	.st5{fill:#FFFFFF;}
	.st6{fill:#F7CD5B;}
	.st7{fill:#040844;}
	.st8{fill:none;}
	.st9{fill:#202124;}
	.st10{fill:#FCFCFC;}
	.st11{fill:#B1CEFC;}
</style>
<g id="background">
	<g id="analytics">
		<line class="st0" x1="139.9" y1="578.9" x2="139.9" y2="344.4"/>
		<line class="st0" x1="223.6" y1="578.9" x2="223.6" y2="435.6"/>
		<line class="st0" x1="316" y1="578.9" x2="316" y2="399"/>
		<line class="st0" x1="426.5" y1="578.9" x2="426.5" y2="502.1"/>
		<g>
			<g>
				<path class="st1" d="M42.6,101.2c4.9-7.6,9.5-15.4,13.6-23.5c-1.7,0-3.5,0-5.2,0c4,7.8,8,15.6,12,23.4c1.8,3.4,6.9,0.4,5.2-3
					c-4-7.8-8-15.6-12-23.4c-1-2-4.2-2-5.2,0c-4.1,8.1-8.7,15.9-13.6,23.5C35.3,101.4,40.5,104.4,42.6,101.2L42.6,101.2z"/>
			</g>
		</g>
		<g>
			<g>
				<path class="st1" d="M49.8,83.9c0,126.5,0,253,0,379.6c0,36,0,71.9,0,107.9c0,3.9,6,3.9,6,0c0-126.5,0-253,0-379.6
					c0-36,0-71.9,0-107.9C55.8,80,49.8,80,49.8,83.9L49.8,83.9z"/>
			</g>
		</g>
		<g>
			<g>
				<path class="st1" d="M84.6,581.9c121.5,0,243,0,364.6,0c34.5,0,69.1,0,103.6,0c3.9,0,3.9-6,0-6c-121.5,0-243,0-364.6,0
					c-34.5,0-69.1,0-103.6,0C80.8,575.9,80.8,581.9,84.6,581.9L84.6,581.9z"/>
			</g>
		</g>
		<g>
			<g>
				<path class="st1" d="M537.9,565.5c6.3,4.9,12.6,9.9,18.9,14.8c0-1.4,0-2.8,0-4.2c-5.1,4.3-10.5,8.4-16,12.2
					c-3.1,2.2-0.1,7.4,3,5.2c5.9-4.1,11.6-8.5,17.2-13.1c1.1-1,1.2-3.3,0-4.2c-6.3-4.9-12.6-9.9-18.9-14.8
					C539.2,558.9,534.9,563.1,537.9,565.5L537.9,565.5z"/>
			</g>
		</g>
		<path class="st2" d="M100.9,215l9.3,49.7l9.8-10c0,0,112.7,102,114.9,102.2c2.1,0.2,109.6,28.2,109.6,28.2l127.4,143.3l90.5,17.9
			v-7.9l-86.8-17.2L350.5,380.6l-112.7-29.5l-109.7-104l8.7-6.9L100.9,215z"/>
	</g>
	<g id="coin">
		<circle class="st3" cx="124.9" cy="75.5" r="28.1"/>
		<circle class="st4" cx="120.5" cy="75.7" r="28.1"/>
		<g>
			<g>
				<path class="st5" d="M118.5,56.5c-0.1,2.1-0.1,4.1,0.2,6.2c0.1,0.9,1.6,1,1.5,0c-0.3-2.1-0.3-4.1-0.2-6.2
					C120.1,55.6,118.6,55.6,118.5,56.5L118.5,56.5z"/>
			</g>
		</g>
		<g>
			<g>
				<path class="st5" d="M126.3,63.2c-5.4-1.2-15.9-0.1-14,8.2c0.7,3,3.3,4.2,6.1,4.7c0.9,0.2,1.9,0.2,2.9,0.3
					c0.9,0.1,1.7,0.2,2.6,0.3c2.4,0.1,3.5,1.3,3.1,3.9c1.7,3.1,0.6,5.1-3.3,6.1c-0.5,0.1-0.9,0.2-1.4,0.4c-2.9,0.7-5.9,0.2-8.6-1.2
					c-0.9-0.4-1.6,0.8-0.8,1.3c5.3,2.8,16.8,2.3,17-5.9c0.1-2.8-1.8-4.8-4.4-5.7c-2.2-0.8-4.8-0.2-7-1.1c-2.1,0-2.9-1.4-2.3-4.3
					c-2.2-3.2-1.5-5.1,2.1-5.9c2.4-0.8,5.1-0.3,7.5,0.2C126.8,64.8,127.2,63.4,126.3,63.2L126.3,63.2z"/>
			</g>
		</g>
		<g>
			<g>
				<path class="st5" d="M120.2,87.9c0.1,1.6,0.2,3.3,0.3,4.9c0.1,1,1.6,1,1.5,0c-0.1-1.6-0.2-3.3-0.3-4.9
					C121.6,86.9,120.1,86.9,120.2,87.9L120.2,87.9z"/>
			</g>
		</g>
	</g>
</g>
<g id="character">
	<g id="hand_left">
		<path class="st6" d="M457.9,295c0.4-1.6,1.7-6.1,5.8-8.7c1-0.6,2-1,2.8-1.3c2-1.4,4.4-3,7.1-4.4c2.8-1.5,5.5-2.6,7.8-3.4
			c2.7-0.9,5.1-1.6,7.1-2c0.4,0.6,0.9,1.4,1.2,2.5c0.7,2.6-0.3,4.8-0.7,5.4c-1.1,0.3-2.7,0.7-4.5,1.4c-2.5,0.9-4.8,1.8-7.1,3.6
			c-2.8,2.1-2.3,3-5,4.9c-0.6,0.4-2.8,1.9-6.1,2.5C462.6,296.2,459.5,295.5,457.9,295z"/>
		<path class="st7" d="M390.2,162c0.6,0.5,1.5,1.5,2.3,2.8c1.3,2.4,1.3,4.6,1.4,5.3c0,0.2,1.7,6.4,4.9,19c1.5,5.8,3.1,11.9,4.6,17.6
			c2,7.6,4.9,18,8.5,30.9c6.4,5.5,12.9,11.1,19.4,16.9c11.6,10.4,22.7,20.8,33.2,31c-1,0.6-2.3,1.5-3.5,3c-2.4,3.1-2.6,6.4-2.6,7.7
			c-2.2-0.7-5.5-1.8-9.5-3.1c-13-4.3-19.5-6.5-21.8-7.3c-6.7-2.5-13.1-5.7-26.1-12.1c-6.5-3.2-10.2-5.2-14.5-8.8
			c-2.1-1.8-5.7-4.9-8.8-9.8c-2.5-3.8-3.4-6.9-5.5-13.9c-3.3-11.2-5-16.7-6.8-24.2c-3.8-15.5-3.9-18.7-3.6-21.9
			c0.3-2.9,1.1-7.7,3.4-12.6C372,168.5,386.3,163.3,390.2,162z"/>
		<g>
			<path class="st8" d="M392.4,164.8c5.8,22.7,11.8,45.4,18,68"/>
		</g>
		<g>
			<path class="st8" d="M414,239.5c17.4,14.7,34.3,30,50.5,46"/>
		</g>
		<g>
			<path class="st8" d="M362.3,203.6c2.9,12.6,6.2,25,10,37.3c2,6.4,4.2,13,8.5,18.2c3.6,4.3,8.4,7.4,13.2,10.3
				c19.7,11.6,41,20.3,63.2,25.6"/>
		</g>
		<g>
			<g>
				<path class="st9" d="M463.5,286c-2.7,1.5-4.6,4.1-5.1,7.1c-0.1,0.5,0.6,0.7,0.7,0.2c0.5-2.9,2.3-5.2,4.8-6.6
					C464.3,286.4,463.9,285.7,463.5,286L463.5,286z"/>
			</g>
		</g>
		<g>
			<path class="st8" d="M462.1,294.5c1.6,1.2,3.8,1.3,5.7,0.6s3.4-1.9,5-3.2c1.9-1.5,3.7-3,5.6-4.5"/>
		</g>
		<g>
			<g>
				<path class="st9" d="M470.7,287.2c2.3-1.1,4.7-1.6,7.2-1.6c0.5,0,0.5-0.8,0-0.8c-2.7,0-5.2,0.6-7.6,1.7
					C469.9,286.8,470.3,287.4,470.7,287.2L470.7,287.2z"/>
			</g>
		</g>
		<g>
			<path class="st8" d="M465.3,285.9c6.8-5.2,14.8-8.9,23.2-10.8"/>
		</g>
		<g>
			<g>
				<path class="st9" d="M477.2,282.8c3.7-2.1,7.6-3.7,11.8-4.7c0.5-0.1,0.3-0.8-0.2-0.7c-4.2,1-8.2,2.6-12,4.8
					C476.4,282.4,476.8,283,477.2,282.8L477.2,282.8z"/>
			</g>
		</g>
		<g>
			<g>
				<path class="st9" d="M481.1,283.5c2.8-1.6,5.7-2.6,8.9-3c0.5-0.1,0.5-0.8,0-0.8c-3.3,0.4-6.4,1.5-9.3,3.1
					C480.3,283.1,480.7,283.8,481.1,283.5L481.1,283.5z"/>
			</g>
		</g>
		<g>
			<g>
				<path class="st9" d="M482.8,285.2c2-1,4.1-1.6,6.3-1.8c0.5,0,0.5-0.8,0-0.8c-2.3,0.2-4.6,0.8-6.7,1.9
					C482,284.8,482.4,285.5,482.8,285.2L482.8,285.2z"/>
			</g>
		</g>
	</g>
	<g id="torso">
		<path class="st7" d="M251.1,131c-1.8,2.9-4.2,7.4-5.7,13.2c-1.4,5.3-1.5,9.6-1.6,12.8c-0.3,19.1,0.6,31.8,0.6,31.8
			c0.6,7.8,1.3,16.7,3.1,28.5c2.1,13.8,4.7,26,7.5,36.6c2.4,9.1,5.5,19.7,9.8,31.4c8.1,4.7,23,12,43.1,14.1
			c19.3,2.1,34.9-1.4,43.8-4.2c0.5-1.9,1.2-4.7,2-8.2c2.1-8.9,2.8-13.6,3.7-17.7c1.1-5.2,3.2-10.6,7.4-21.4
			c5-12.9,6.5-15.1,10.9-26.7c1.2-3.2,4.3-11.1,6.6-18.7c2.9-9.4,6.3-23,7.9-40.5c-5.5-2.6-13.4-6.3-23.2-10.2
			c-14.7-6-31-12.5-53.2-17.1c-21.9-4.5-37.9-4.7-41.7-4.7C263.6,129.9,256.4,130.4,251.1,131z"/>
		<g>
			<path class="st8" d="M244.2,148.1c-2.3,45.3,4.3,91,19.4,133.8"/>
		</g>
		<g>
			<path class="st8" d="M251.1,131c47.8-5.4,95.5,10.6,139.1,31"/>
		</g>
		<g>
			<g>
				<path class="st10" d="M387,171.8c-0.8,42.6-30.7,77.7-34.2,119.7c0,0.5,0.7,0.5,0.8,0c3.6-42,33.5-77.1,34.2-119.7
					C387.8,171.3,387,171.3,387,171.8L387,171.8z"/>
			</g>
		</g>
		<g>
			<g>
				<path class="st9" d="M266,284c4.5,5.1,10.6,7.8,17,9.8c7.9,2.5,16,4.5,24.1,5.8c15.1,2.5,30.5,2.2,44.7-4.1
					c0.4-0.2,0.1-0.8-0.4-0.6c-14.5,6.5-30.4,6.5-45.8,3.7c-6.8-1.2-13.6-2.9-20.2-4.8c-7.1-2.1-13.9-4.6-18.9-10.3
					C266.2,283.1,265.7,283.6,266,284L266,284z"/>
			</g>
		</g>
	</g>
	<g id="leg_left">
		<path class="st2" d="M512.6,466.3c4.7,5.1,9.4,10.3,14.1,15.4c28.9-27,42.1-42.2,39.5-45.5c-2.3-3-17,3.5-44.4,19.4
			C518.7,459.2,515.6,462.8,512.6,466.3z"/>
		<g>
			<g>
				<path class="st5" d="M526,453.5c-0.7,1.1-4.8,9.9-1.3,9.4c1.6-0.3,2.4-3.6,2.5-4.8c0.3-1.6,0.1-3-0.3-4.5
					c-0.2-1.1-1.2-4.1,0.3-4.7c0.6,0.1,1.1,0.2,1.7,0.3c-0.3,1.2-0.9,2.3-1.8,3.3c-0.3,0.4,0.2,0.9,0.5,0.5c0.9-1.1,2.8-3.7,1.9-5.3
					c-0.7-1.2-1.7-0.9-2.4,0c-1.8,2-1.3,4.3-0.8,6.6c0.3,1.3,0.3,2.5,0.1,3.8c-0.1,0.6-0.9,4.2-2.3,3.6c-1.2-0.5,2.2-7.2,2.5-7.7
					C526.9,453.5,526.2,453.1,526,453.5L526,453.5z"/>
			</g>
		</g>
		<g>
			<g>
				<path class="st5" d="M530.3,450.8c-0.5,1.6-0.7,3.2-0.6,4.9c0,0.5,0.8,0.5,0.8,0c-0.1-1.6,0-3.2,0.5-4.7
					C531.2,450.6,530.4,450.4,530.3,450.8L530.3,450.8z"/>
			</g>
		</g>
		<g>
			<g>
				<path class="st5" d="M534,448.4c-1,1.3-1.2,3-0.7,4.5c0.2,0.4,0.9,0.3,0.7-0.2c-0.5-1.4-0.3-2.8,0.6-3.9
					C534.9,448.4,534.2,448,534,448.4L534,448.4z"/>
			</g>
		</g>
		<g>
			<g>
				<path class="st5" d="M537.9,445.5c-0.6,1.6-0.9,3.3-0.8,5.1c0,0.5,0.8,0.5,0.8,0c-0.1-1.7,0.1-3.3,0.7-4.9
					C538.8,445.2,538.1,445,537.9,445.5L537.9,445.5z"/>
			</g>
		</g>
		<g>
			<g>
				<path class="st5" d="M540.8,444.6c-0.6,1.3-0.5,2.8,0.3,4c0.3,0.4,0.9,0,0.6-0.4c-0.6-1-0.7-2.2-0.3-3.3
					C541.6,444.5,541,444.2,540.8,444.6L540.8,444.6z"/>
			</g>
		</g>
		<g>
			<g>
				<path class="st5" d="M527.1,477.8c9.7-9.8,19.5-19.6,29.2-29.5c0.3-0.3-0.2-0.9-0.5-0.5c-9.7,9.8-19.5,19.6-29.2,29.5
					C526.2,477.6,526.8,478.1,527.1,477.8L527.1,477.8z"/>
			</g>
		</g>
		<path class="st11" d="M310,299.6c-1.2,3.6-2.6,9.2-2.3,16c0.5,11.7,5.7,20.1,8.3,23.8c13.8,2.4,25.8,5,35.7,7.3
			c18.6,4.3,35.1,9.1,49.2,13.6c8.4,2.7,15.5,5.1,20.7,7c5.5,6.9,12.3,15.3,20.4,24.7c4.1,4.8,14.9,17.4,29.8,33.3
			c11,11.8,24.6,25.7,40.7,41.1c1.3-0.6,4.1-2.2,6.2-5.6c1.5-2.5,1.9-4.8,2.1-6.1c-3.5-7-8.5-16.8-14.5-28.4
			c-5.5-10.7-13.7-26.5-24.8-46.9c-19.7-36.4-27.7-49-34.6-59.2c-3.5-5.1-6.4-9.2-8.5-12c-3.2-0.8-7.9-1.8-13.7-2.9
			c-19.5-3.8-34.6-5-46.6-5.9c-9.9-0.8-19.9-1.5-33.5-1.5C330.8,297.9,319,298.7,310,299.6z"/>
		<g>
			<path class="st8" d="M344.4,298.9c31.6-1.1,63.3,2,94.1,9.2"/>
		</g>
		<g>
			<path class="st8" d="M441.9,312.3c29.6,45.5,54.3,94,78.9,142.3"/>
		</g>
		<g>
			<path class="st8" d="M316,339.4c35.9,6.3,71.3,15.6,105.6,27.9"/>
		</g>
		<g>
			<path class="st8" d="M426.5,373.4c26.7,32.7,55.5,63.8,86.1,92.9"/>
		</g>
		<g>
			<path class="st8" d="M513.9,464.8c3-1.5,5.3-4,6.6-7.1"/>
		</g>
	</g>
	<g id="leg_right">
		<path class="st2" d="M358.7,503.2c-0.3,6-0.6,12.1-1,18.1c28.9,28.5,41.9,37.9,44.8,35.5c3-2.5-4.3-18.3-28.8-55.6
			C368.8,501.9,363.7,502.6,358.7,503.2z"/>
		<g>
			<g>
				<path class="st5" d="M371.3,507.7c-1.5,0.8-2.9,1.9-3.7,3.5c-0.6,1-0.9,2.6,0.6,2.9c1.3,0.3,2.7-0.7,3.5-1.6
					c1.1-1.2,1.7-2.7,1.9-4.3c0.1-0.5-0.7-0.5-0.8,0c-0.3,2-1.6,4.6-3.7,5.2c-1.1,0.3-1.4-0.8-1-1.8c0.2-0.5,0.6-1,1-1.4
					c0.7-0.8,1.5-1.4,2.5-1.8C372.1,508.2,371.8,507.5,371.3,507.7L371.3,507.7z"/>
			</g>
		</g>
		<g>
			<g>
				<path class="st5" d="M373.9,507.7c0.6-1.7,2.4-3.6,4.4-3.7c1.5,0,1.7,1.3,0.8,2.1c-0.4,0.3-0.8,0.6-1.3,0.8
					c-1.1,0.5-2.2,0.9-3.3,1.2c-0.5,0.1-0.3,0.8,0.2,0.7c1.6-0.4,4-1,5.2-2.4c0.6-0.8,0.8-2,0-2.8c-1-0.9-2.9-0.2-3.8,0.4
					c-1.3,0.8-2.3,2-2.8,3.4C373,508,373.7,508.2,373.9,507.7L373.9,507.7z"/>
			</g>
		</g>
		<g>
			<g>
				<path class="st5" d="M373.8,513.5c0.9-1.6,2.7-2.5,4.5-2.2c0.5,0.1,0.7-0.6,0.2-0.7c-2.1-0.3-4.2,0.6-5.3,2.5
					C372.9,513.5,373.5,513.9,373.8,513.5L373.8,513.5z"/>
			</g>
		</g>
		<g>
			<g>
				<path class="st5" d="M376.3,517c0.5-2.1,2.9-2.3,4.8-2.4c0.5,0,0.5-0.8,0-0.8c-2.2,0.1-4.9,0.5-5.5,3
					C375.5,517.3,376.2,517.4,376.3,517L376.3,517z"/>
			</g>
		</g>
		<g>
			<g>
				<path class="st5" d="M379.3,520.5c0.6-1.9,2.8-2.9,4.6-2c0.4,0.2,0.8-0.4,0.4-0.6c-2.2-1.1-5,0.1-5.7,2.5
					C378.4,520.7,379.1,520.9,379.3,520.5L379.3,520.5z"/>
			</g>
		</g>
		<g>
			<g>
				<path class="st5" d="M382.1,524c0.8-1.6,2.5-2.5,4.3-2.2c0.5,0.1,0.7-0.6,0.2-0.7c-2.1-0.3-4.1,0.6-5.1,2.5
					C381.2,524.1,381.9,524.5,382.1,524L382.1,524z"/>
			</g>
		</g>
		<g>
			<g>
				<path class="st5" d="M385.4,528.3c0.5-1.3,2.1-2,3.3-1.4c0.4,0.2,0.8-0.5,0.4-0.6c-1.7-0.8-3.7,0.1-4.4,1.8
					C384.5,528.6,385.3,528.8,385.4,528.3L385.4,528.3z"/>
			</g>
		</g>
		<g>
			<g>
				<path class="st5" d="M358.3,519.4c8.8,7.9,17.5,15.8,26.3,23.7c0.4,0.3,0.9-0.2,0.5-0.5c-8.8-7.9-17.5-15.8-26.3-23.7
					C358.4,518.6,357.9,519.1,358.3,519.4L358.3,519.4z"/>
			</g>
		</g>
		<path class="st11" d="M263.9,281.5c-0.4,1.4-0.8,3.2-1.4,5.5c-0.4,1.6-1.6,7.2-3.2,15.2c-1.7,8.3-2.5,14.8-3.4,22.1
			c-1.2,9.8-0.4,6.2-1.2,12.2c-0.7,5-1.2,6.8-0.4,9.7c1.2,4.3,4.2,6.8,4.9,7.4c1.6,1.3,2.8,1.7,5.5,2.9c8,3.3,6.5,3.1,11,4.8
			c4.5,1.7,8.7,3,14.3,4.3c10.3,2.5,21.4,5.1,36.3,5.8c5.8,0.3,13.7,0.3,23.1-0.7c0.2,10.7,0.6,24.3,1.4,40
			c0.5,10.3,1.1,23.6,2.5,40.2c1.1,14.4,2.9,32.9,5.8,54.6c1.1,0.5,2.7,1.1,4.5,1.4c4.5,0.6,8.1-0.9,9.7-1.7
			c1.3-4.4,3.2-11,5.7-18.9c4.3-13.5,7.3-21.7,10.1-29.6c10.3-29.4,16.8-53.8,20.2-66.7c1.4-5.4,2.8-10.9,5.5-22.1
			c1.6-6.7,3.9-16.1,5.5-27.9c0.1-1,0.9-6.6,0.8-13.9c-0.1-4.8-0.5-8.5-2.1-12.5c-0.6-1.5-1.2-2.7-1.7-3.5
			c-4.7-1.8-11.3-4.1-19.4-6.3c-17.1-4.6-30.5-5.8-41.9-6.7c-12.7-1-29.5-1.7-49.4-0.3c-4-0.6-8.8-1.5-14.3-2.9
			c-3.2-0.9-8.6-2.3-15.2-5.2C273.4,286.8,268.8,284.6,263.9,281.5z"/>
		<g>
			<path class="st8" d="M262.5,286.9c-4.2,17.7-7,35.8-8.3,54c-0.2,2.7-0.3,5.6,0.9,8.1c1.6,3.3,5,5.1,8.4,6.7
				c25.1,11.6,53.1,17,80.7,15.5"/>
		</g>
		<g>
			<g>
				<path class="st5" d="M282.1,298.3c45.2-2.4,92.1-4.6,135.1,12c0.5,0.2,0.6-0.6,0.2-0.7c-43.1-16.7-90-14.5-135.3-12.1
					C281.6,297.6,281.6,298.3,282.1,298.3L282.1,298.3z"/>
			</g>
		</g>
		<g>
			<g>
				<path class="st5" d="M418.6,313.6c4.8,16.2,0.5,33.2-3.1,49.2c-3.5,16-7.7,31.9-12.3,47.7c-9.1,31.3-19.8,62-30.5,92.8
					c-0.2,0.5,0.6,0.7,0.7,0.2c11.1-32,22.2-63.9,31.6-96.5c4.6-16.1,8.8-32.3,12.3-48.7c3.1-14.7,6.5-30.1,2.1-44.9
					C419.2,312.9,418.4,313.1,418.6,313.6L418.6,313.6z"/>
			</g>
		</g>
		<g>
			<path class="st8" d="M349.1,359c0.7,47.8,3.6,95.6,8.7,143.1"/>
		</g>
		<g>
			<path class="st8" d="M359,505.4c4.4,2.1,9.9,2,14.3-0.3"/>
		</g>
	</g>
	<g id="gand_right">
		<path class="st6" d="M152.7,137.4c-0.9-0.9-2.3-2.2-3.9-3.8c-3.2-3.3-3.2-3.9-5.7-6.4c-4.1-4.2-6.9-5.6-8.7-6.4
			c-1-0.4-3.5-1.4-4-0.7c-0.6,0.8,1.8,3.7,4.1,6.1c-1.5-0.2-3.7-0.5-6.2-1.5c-3.1-1.2-3.7-2.1-5.8-2.3c-0.4,0-4.6-0.4-7.3,2.7
			c-1.6,1.8-1.9,3.9-1.9,4.8c0.4,0.9,1.2,2.3,2.4,3.6c1.6,1.7,3.2,2.6,5.3,3.6c3.3,1.6,5.5,2.4,9.2,3.9c4.9,2,7.3,2.9,8.6,3.6
			c4.2,2.1,4.7,3.1,6.2,3C147.1,147.5,149.8,145.6,152.7,137.4z"/>
		<path class="st7" d="M150,133.9c-1.2,0.7-2.5,1.7-3.9,3.2c-3.4,3.8-4,8.2-4.1,10.1c1.3,1.9,3.1,4.5,5.4,7.7
			c2,2.8,10.1,13.8,25.4,29.8c7.3,7.7,16.9,17,28.6,27.2c0.8,1,2.6,3.3,5.9,4.5c0.6,0.2,2.4,0.8,4.7,0.7c2.8-0.1,4.8-1.2,5.6-1.6
			c4.7-2.4,2.5-0.1,16.2-6.4c3.1-1.4,9.9-4.5,19.2-9.5c5.7-3,10.4-5.7,13.8-7.7c1.9-4.1,3.6-9,4.2-14.7
			c2.6-24.7-16.6-43.1-19.9-46.3c-1.1,1.2-2.7,2.9-4.5,4.8c-1.9,2-5.2,5.3-12.6,12.1c-9.8,9-12,10.5-14.7,11.9
			c-2.8,1.4-5.3,2.3-7,2.8c-2.1-0.5-5.1-1.2-8.6-2.3c-4.6-1.4-8.4-3-19.3-8.2c-9.2-4.3-13.8-6.5-18.6-9.1
			C159.4,139.6,154.1,136.4,150,133.9z"/>
		<g>
			<path class="st8" d="M249.1,132.4c-9.7,11.3-21,21.3-33.4,29.5c-0.8,0.5-1.6,1-2.5,1.1c-1,0.1-1.9-0.2-2.9-0.6
				c-20.8-7.9-41-17.5-60.3-28.4"/>
		</g>
		<g>
			<g>
				<path class="st9" d="M147.8,135c-2.9,2.5-4.8,5.8-5.6,9.5c-0.1,0.5,0.6,0.7,0.7,0.2c0.8-3.6,2.6-6.7,5.4-9.1
					C148.7,135.2,148.1,134.7,147.8,135L147.8,135z"/>
			</g>
		</g>
		<g>
			<path class="st8" d="M142.5,148.3c17.7,24.1,38.3,46.1,61.2,65.4c1.6,1.3,3.2,2.7,5.2,3.2c2.5,0.6,5.1-0.2,7.5-1
				c16.6-5.7,32.5-13.2,47.3-22.5"/>
		</g>
		<g>
			<path class="st8" d="M149.4,134.2c-1.4-1.6-2.8-3.2-4.2-4.8c-2-2.3-4-4.5-6.4-6.3c-2.4-1.8-5.3-3-8.3-3c0.4,2,1.7,3.9,3.5,5"/>
		</g>
		<g>
			<path class="st8" d="M141.7,145.8c-5.7-2.4-11.4-4.8-17.1-7.2c-2.4-1-4.9-2-7-3.6c-2.1-1.6-3.9-3.7-4.6-6.3"/>
		</g>
		<g>
			<g>
				<path class="st9" d="M114.1,127.5c2.7,2.3,5.6,4.3,8.8,5.9c0.4,0.2,0.8-0.4,0.4-0.6c-3.1-1.6-6-3.5-8.7-5.8
					C114.2,126.7,113.7,127.2,114.1,127.5L114.1,127.5z"/>
			</g>
		</g>
		<g>
			<g>
				<path class="st9" d="M116.1,125c3,1.1,5.8,2.6,8.5,4.3c0.4,0.3,0.8-0.4,0.4-0.6c-2.7-1.8-5.6-3.2-8.7-4.4
					C115.8,124.1,115.6,124.8,116.1,125L116.1,125z"/>
			</g>
		</g>
		<g>
			<g>
				<path class="st9" d="M119.4,124.2c2.7,0.4,5.1,1.4,7.3,2.9c0.4,0.3,0.8-0.4,0.4-0.6c-2.3-1.6-4.8-2.6-7.5-3
					C119.1,123.4,118.9,124.1,119.4,124.2L119.4,124.2z"/>
			</g>
		</g>
		<g>
			<g>
				<path class="st9" d="M122.4,122.7c2.9,1,5.7,2.2,8.3,3.6c0.4,0.2,0.8-0.4,0.4-0.6c-2.7-1.5-5.6-2.7-8.5-3.7
					C122.2,121.9,122,122.6,122.4,122.7L122.4,122.7z"/>
			</g>
		</g>
	</g>
	<g id="head">
		<path class="st9" d="M312.4,125.1c-1.4-0.7-3.3-1.8-5.4-3.4c-2.5-2-5.7-4.4-7.7-8.5c-0.6-1.3-2.9-6.1-1.6-12.1
			c1.5-7.3,7.1-11.1,8.6-12.1c3.8-2.6,7.4-3.2,9-3.4c8.8-1.4,15.8,2.4,18.5,4c6.9,3.9,10.4,9.3,11.8,11.6c4.2,6.7,5.1,13,5.6,16.5
			c0.6,4.9,0.4,9,0,11.8c-2.7,1.7-7.2,4-13,4.6C324.3,135.5,314.3,126.8,312.4,125.1z"/>
		<path class="st6" d="M313.6,117.3c-0.3,1.4-0.6,3.2-0.9,5.5c-0.3,3-0.6,6.4,0.1,10.2c0.4,2.4,1.1,6,3.8,9.4
			c3.6,4.5,8.5,6,10.6,6.5c-1.3,2-2.6,3.9-3.9,5.9c0.6,0.9,2.3,3.2,5.4,4.5c3.6,1.5,6.9,0.8,7.9,0.5c2.4-5.2,4.7-10.4,7.1-15.5
			c0.7-0.6,1.5-1.5,2.5-2.6c0.4-0.5,2.5-3.1,4-7.4c0.9-2.6,1.8-5.3,1.5-8.7c-0.2-2-0.8-3.6-1.2-4.7c-1.5-1.4-3.8-3.3-6.8-5.2
			c-3.7-2.3-7.1-4.4-11.9-4.8c-4-0.3-7.1,0.6-8.7,1.1C318.4,113.4,315.2,115.8,313.6,117.3z"/>
		<g>
			<path class="st8" d="M313.5,117.6c-0.8,4.6-1.4,9.2-0.9,13.8c0.5,4.6,2.1,9.2,5.3,12.6c5.3,5.7,14.6,6.8,21.5,3.2
				s11.3-11.1,11.9-18.9"/>
		</g>
		<g>
			<g>
				<path class="st9" d="M312.6,124.8c-7.7-4.3-15.7-11.3-15-20.9c0.7-10,9.8-17.5,19.4-18.2c19.4-1.4,33.8,17.2,33.9,35.2
					c0,0.5,0.8,0.5,0.8,0c-0.2-19.6-18-40.9-39.3-35.2c-8.1,2.2-14.9,9.6-15.6,18.2c-0.7,9.9,7.4,17.2,15.3,21.6
					C312.6,125.7,313,125,312.6,124.8L312.6,124.8z"/>
			</g>
		</g>
		<g>
			<g>
				<path class="st9" d="M313.8,117.6c5.6-4.1,12-7.7,19.3-6.3c6.8,1.3,12.3,5.8,17.5,10c0.4,0.3,0.9-0.2,0.5-0.5
					c-5.7-4.6-11.8-9.6-19.4-10.4c-6.9-0.8-12.9,2.6-18.3,6.6C313,117.3,313.4,117.9,313.8,117.6L313.8,117.6z"/>
			</g>
		</g>
		<g>
			<g>
				<path class="st9" d="M324.9,118.7c-2.2,3.8-7.3,13.5-0.3,15.4c0.5,0.1,0.7-0.6,0.2-0.7c-6.3-1.7-1.2-11,0.7-14.3
					C325.8,118.6,325.1,118.2,324.9,118.7L324.9,118.7z"/>
			</g>
		</g>
		<g>
			<path class="st8" d="M343.1,144.9c-2.8,4.1-5.6,8.2-8.3,12.3"/>
		</g>
		<g>
			<path class="st8" d="M321.1,154.9c-1,2.2-1.8,4.5-1.6,6.9c0.2,2.4,1.5,4.8,3.7,5.7c1,0.4,2.2,0.5,3.3,0.4
				c7-0.3,18.5-7.9,17.3-11.1c-0.2-0.5-0.7-1-2.4-1.4"/>
		</g>
		<ellipse class="st9" cx="334.3" cy="122.2" rx="1.2" ry="2"/>
	</g>
</g>
</svg>
