<?xml version="1.0" encoding="utf-8"?>
<!-- Generator: Adobe Illustrator 23.0.3, SVG Export Plug-In . SVG Version: 6.00 Build 0)  -->
<svg version="1.1" xmlns="http://www.w3.org/2000/svg" xmlns:xlink="http://www.w3.org/1999/xlink" x="0px" y="0px"
	 viewBox="0 0 600 600" style="enable-background:new 0 0 600 600;" xml:space="preserve">
<style type="text/css">
	.st0{fill:#EB506E;}
	.st1{fill:#FFFFFF;stroke:#202124;stroke-width:0.75;stroke-miterlimit:10;}
	.st2{fill:#040844;}
	.st3{fill:none;}
	.st4{fill:#202124;}
	.st5{fill:#FFFFFF;}
	.st6{fill:#E2E2E2;}
	.st7{fill:none;stroke:#FFFFFF;stroke-width:0.75;stroke-miterlimit:10;}
	.st8{fill:#F7CD5B;}
	.st9{fill:#B1CEFC;}
	.st10{fill:#5492ED;}
	.st11{fill:#5185EC;}
	.st12{fill:#EDEDED;}
	.st13{fill:#5185EC;stroke:#5185EC;stroke-miterlimit:10;}
	.st14{fill:none;stroke:#5185EC;stroke-miterlimit:10;}
	.st15{fill:#CECECE;}
	.st16{fill:none;stroke:#202124;stroke-width:0.75;stroke-miterlimit:10;}
</style>
<g id="guy">
	<g id="tab_1_">
		<path class="st0" d="M280.3,22c-0.2,37.5,0,75.8,0.6,114.9c0.7,40.7,1.8,80.6,3.4,119.5c57,12.3,114,24.5,171,36.8
			c3.5-86.6,7-173.2,10.4-259.8C404,29.6,342.2,25.8,280.3,22z"/>
		<path class="st1" d="M288.8,29.2c-0.2,31.2,0,63,0.5,95.5c0.6,33.9,1.7,67,3.1,99.4c51.8,10.2,103.6,20.4,155.4,30.6
			c3.2-72,6.3-144,9.5-216.1C401.2,35.6,345,32.4,288.8,29.2z"/>
	</g>
	<g id="hand_right_1_">
		<path class="st2" d="M285,80.7c-1.2,1.2-2.9,3-4.7,5.3c-4.3,5.6-6.2,10.6-7.9,14.7c-5.4,13.3-5.2,10.2-9.8,22.1
			c-3.9,9.8-6.5,18.2-8.3,24.5c-2.2,7.8-4.5,16.9-6.3,27.1c2.1,1.3,4.8,2.7,8,3.6c11,3.2,20.6-0.7,24.2-2.4
			c0.5-2.6,1.2-6.3,2.5-10.6c0.4-1.5,1.8-6.1,5-14.2c1-2.6,4.2-10.5,7.9-17.7c10.4-20,18.8-22,18.6-29.5
			C313.8,98.2,308.9,90.1,285,80.7z"/>
		<g>
			<path class="st3" d="M282.6,82.2c-17,28.3-28.8,59.7-34.7,92.2"/>
		</g>
		<g>
			<g>
				<path class="st4" d="M298.6,119.8c-6.6,17.2-12.9,34.6-18.8,52.1c-0.2,0.5,0.6,0.7,0.7,0.2c5.9-17.5,12.2-34.8,18.8-52.1
					C299.5,119.5,298.8,119.3,298.6,119.8L298.6,119.8z"/>
			</g>
		</g>
	</g>
	<g id="torso_1_">
		<path class="st2" d="M285,80.7c-0.3,1.8-0.4,3.8-0.4,6.1c0,4,0.6,7.5,1.3,10.2c0.6,7.6,1.6,18,3.5,30.3
			c1.8,12.1,3.7,20.6,6.6,33.8c3.5,16.1,7.1,30.4,10.4,42.8c2.3,8.4,4.3,15.4,5.9,20.6c13,5.2,23.8,8,31.3,9.5
			c10.4,2.2,16,2.5,29.8,5.1c11.1,2.1,20,4.4,25.6,5.9c1.6-23.9,2.9-48.4,3.8-73.4c0.9-22.4,1.4-44.3,1.8-65.8
			c-4.4-3.4-10.4-7.7-18-11.9c-7.1-3.9-19.8-10.2-36.8-14c-20.4-4.6-37-3.6-44.7-2.8C296.7,78,289.9,79.5,285,80.7z"/>
		<g>
			<path class="st3" d="M285,80.7c40.1-10.4,84.9-1.3,117.8,24"/>
		</g>
		<g>
			<g>
				<path class="st5" d="M285.5,97.1c4.4,41.1,12.7,81.7,24.6,121.2c0.1,0.5,0.9,0.3,0.7-0.2c-12-39.5-20.2-80-24.6-121
					C286.2,96.6,285.4,96.6,285.5,97.1L285.5,97.1z"/>
			</g>
		</g>
		<g>
			<path class="st3" d="M404.8,115.2c-0.8,38.6-2.9,77.2-6.4,115.6"/>
		</g>
		<g>
			<path class="st3" d="M311.9,221.8c25.1,14.2,55.4,19,83.7,13.2"/>
		</g>
	</g>
	<g id="box">
		<path class="st6" d="M221.3,232.5c0-1.3-10.3-72.9-10.3-72.9l79.3-28.9l74.1,24.3l-2.1,74.2L289.6,279L221.3,232.5z"/>
		<line class="st7" x1="214.7" y1="161.8" x2="285.9" y2="200.1"/>
		<line class="st7" x1="361.9" y1="157.6" x2="289.6" y2="200.1"/>
		<line class="st7" x1="289.6" y1="276.1" x2="287.7" y2="200.8"/>
		<line class="st7" x1="221.3" y1="232.5" x2="250.3" y2="219.1"/>
		<line class="st7" x1="289.6" y1="279" x2="250.3" y2="219.1"/>
		<line class="st7" x1="211.1" y1="159.6" x2="249.1" y2="214.3"/>
		<line class="st7" x1="287.7" y1="200.8" x2="250.3" y2="214.3"/>
		<path class="st0" d="M327.4,153.3c3.2-1.5,6.5-2.9,9.7-4.4c7.3,2.3,14.7,4.7,22,7c-3.5,1.4-7.1,2.8-10.6,4.2
			C341.5,157.8,334.5,155.6,327.4,153.3z"/>
	</g>
	<g id="hand_left_1_">
		<path class="st8" d="M326,216.5c-1.2-0.6-3-1.3-5.3-1.8c-0.7-0.1-7.1-1.5-8,0.3c-0.2,0.4-0.4,1.4,2.5,4.2
			c-2.5,1.1-5.9,2.6-9.9,4.7c-5.7,3-6.8,4-7.4,5.5c-1.5,3.9,2.2,8.5,3.2,9.7c1.7,0.4,4.2,0.8,7.2,0.5c2.4-0.2,5.2-0.9,11.6-4.6
			c3.2-1.8,7.3-4.3,11.8-7.8c0.1-0.3,1.4-4.9-1.6-8.3C328.7,217.2,326.9,216.7,326,216.5z"/>
		<path class="st2" d="M369.5,130.7c0.5-3.3,1.9-8.9,6.3-13.9c10.4-12.3,27.7-10,29.1-9.8c0.8,1.4,2,3.6,3,6.3
			c1.7,4.6,2.1,8.3,2.3,10.8c1.3,12.5,1.8,10.1,2.5,19.2c0.6,8.2,1.4,17.5,0.1,29.5c-0.8,7.5-2.1,13.7-3.3,18.4
			c-1.7,1.7-4.2,4.1-7.5,6.6c-10.5,8.1-20.2,11.5-27.3,14c-13.6,4.8-27.9,9.9-43.9,15.5c0-1.2-0.1-3.2-1.1-5.5
			c-1.1-2.7-2.8-4.4-3.8-5.2c3-3.4,6-6.7,9.1-10.1c12.3-13.4,24.6-25.9,36.9-37.4c0.1-4.8,0-9.8-0.3-15
			C371.3,145.6,370.5,137.9,369.5,130.7z"/>
		<g>
			<g>
				<path class="st5" d="M369.2,130.7c1.4,12.7,2.2,25.5,2.3,38.3c0,0.5,0.8,0.5,0.8,0c-0.1-12.8-0.8-25.6-2.3-38.3
					C369.9,130.2,369.1,130.2,369.2,130.7L369.2,130.7z"/>
			</g>
		</g>
		<g>
			<g>
				<path class="st5" d="M371.5,168.6c-15.5,15.3-30.5,30.9-45.2,47c-0.3,0.4,0.2,0.9,0.5,0.5c14.6-16.1,29.7-31.7,45.2-47
					C372.4,168.8,371.8,168.3,371.5,168.6L371.5,168.6z"/>
			</g>
		</g>
		<g>
			<g>
				<path class="st4" d="M327.3,218.3c2.1,2.5,3.2,5.6,3.2,8.9c0,0.5,0.7,0.5,0.8,0c0-3.5-1.2-6.8-3.5-9.5
					C327.5,217.4,327,217.9,327.3,218.3L327.3,218.3z"/>
			</g>
		</g>
		<g>
			<path class="st3" d="M331.8,227.2c13.5-4.5,26.9-9.3,40.2-14.4c13.6-5.3,27.6-11.1,37.6-21.7"/>
		</g>
		<g>
			<g>
				<path class="st4" d="M326.2,216.1c-3.6-1.8-9-3.3-13-1.8c-3.8,1.5,0.4,3.6,1.6,4.9c0.3,0.4,0.8-0.2,0.5-0.5
					c-0.4-0.5-1.7-1-1.9-1.4c-1.7-2.9,2.7-2.6,3.9-2.6c3,0,5.9,0.8,8.6,2.1C326.3,217,326.6,216.3,326.2,216.1L326.2,216.1z"/>
			</g>
		</g>
		<g>
			<path class="st3" d="M315.3,219.1c-3.9,2-7.8,4-11.7,5.9c-2.1,1.1-4.4,2.2-5.6,4.3"/>
		</g>
		<g>
			<g>
				<path class="st4" d="M298.8,230.6c1.8,0.8,4.1,0.3,6,0.1c2.2-0.3,4.2-0.7,6.2-1.6c0.4-0.2,0.1-0.8-0.4-0.6c-2,0.9-4,1.3-6.2,1.6
					c-1.6,0.2-3.7,0.6-5.2,0C298.7,229.7,298.3,230.4,298.8,230.6L298.8,230.6z"/>
			</g>
		</g>
		<g>
			<g>
				<path class="st4" d="M299.2,233.1c3.7,1.1,7.3,0.5,11-0.2c0.5-0.1,0.3-0.8-0.2-0.7c-3.5,0.7-7.1,1.3-10.6,0.2
					C298.9,232.2,298.7,233,299.2,233.1L299.2,233.1z"/>
			</g>
		</g>
		<g>
			<g>
				<path class="st4" d="M299.7,235.4c3,1.9,6.4,1.2,9.6,0.4c0.5-0.1,0.3-0.8-0.2-0.7c-3,0.8-6.2,1.4-9-0.4
					C299.6,234.5,299.3,235.1,299.7,235.4L299.7,235.4z"/>
			</g>
		</g>
		<g>
			<path class="st3" d="M301.2,239c3.9,1.3,8.2,0.7,12.1-0.7s7.3-3.7,10.8-5.9c2.1-1.4,4.2-2.7,6.3-4.1"/>
		</g>
		<g>
			<path class="st3" d="M404.9,106.9c2.3,3,3.3,6.8,4.1,10.5c5.1,23.4,5.8,47.8,2,71.5"/>
		</g>
	</g>
	<g id="head_1_">
		<path class="st4" d="M344.7,69.3c-0.5-1.6-1.7-4.5-4.5-6.7c-5.3-4.2-12.1-2.5-14.3-2c-4,1-6.8,2.9-8.6,4.4
			c-0.1,0.7-0.1,1.4-0.2,2.1c-0.4,0.1-1.1,0.2-1.9,0.2c-0.5,0-2-0.2-4.1-1.6c-1.3-0.9-3.9-2.6-5.3-6.1c-0.2-0.5-2.3-5.8,0.6-10.9
			c2.2-3.9,5.8-5.3,7.1-5.8c6.3-2.4,12.3,0.2,15.8,1.7c2.6,1.2,7.5,3.4,11.2,8.7C345.3,59.9,344.9,67.1,344.7,69.3z"/>
		<path class="st8" d="M317.6,64.3c-0.2,0.8-0.5,1.8-0.7,3.2c-0.2,1.4-0.6,5,1.1,9c0.6,1.3,1.7,4,4.6,6.2c3,2.2,6.1,2.6,6.8,2.6
			c1.5,0.1,2.7,0,3.6-0.2c0.3,0.7,0.6,1.5,1,2.2c-1.5-0.2-3,0.6-3.5,1.9c-0.6,1.5,0.3,3.1,1.1,3.8c1.5,1.3,3.7,0.9,5,0.6
			c2.6-0.5,4.3-2,5.5-3c1-0.9,1.7-1.7,2.2-2.3c-1.1-2.7-2.3-5.4-3.4-8.1c0.6-0.9,1.5-2.3,2.2-4.1c1.2-2.7,2-4.6,1.8-6.7
			c-0.5-5-7-7.9-8.1-8.3c-4.1-1.7-7.8-1.1-9.8-0.8C322.4,61,319.2,63.1,317.6,64.3z"/>
		<ellipse class="st4" cx="331.8" cy="66.7" rx="0.9" ry="1.3"/>
		<g>
			<path class="st3" d="M317.3,65c-0.3,4.1-0.6,8.4,0.9,12.2c2.1,5.1,7.8,8.6,13.3,8.1s10.6-4.8,11.8-10.3"/>
		</g>
		<g>
			<g>
				<path class="st4" d="M332.7,85.7c0.5,0.8,0.9,1.6,1.1,2.5c0.1,0.5,0.8,0.3,0.7-0.2c-0.2-1-0.6-1.9-1.2-2.7
					C333.1,85,332.4,85.3,332.7,85.7L332.7,85.7z"/>
			</g>
		</g>
		<g>
			<g>
				<path class="st4" d="M316.9,67.1c-8.3-1.1-14.5-9.8-10.3-17.9c3.6-7,11.2-7.4,17.9-5.6c11.6,3.1,21.9,12.8,20,25.7
					c-0.1,0.5,0.7,0.7,0.7,0.2c2.3-15.5-14-29.3-29.1-27.6c-6.6,0.7-11.8,6.6-11.5,13.3c0.2,7,5.6,11.9,12.3,12.8
					C317.4,67.9,317.4,67.2,316.9,67.1L316.9,67.1z"/>
			</g>
		</g>
		<g>
			<g>
				<path class="st4" d="M317.5,65c7.1-6.7,25-7.2,26.9,5.2c0.1,0.5,0.8,0.3,0.7-0.2c-2-12.8-20.7-12.6-28.2-5.5
					C316.7,64.8,317.2,65.3,317.5,65L317.5,65z"/>
			</g>
		</g>
		<g>
			<g>
				<path class="st4" d="M325,66.2c-1.2,3-3.1,8.2,0.5,10.3c0.4,0.2,0.8-0.4,0.4-0.6c-3.2-1.8-1.2-6.8-0.2-9.4
					C325.9,66,325.2,65.8,325,66.2L325,66.2z"/>
			</g>
		</g>
		<g>
			<path class="st3" d="M330.5,89.2c-0.8,1.6,0.4,3.7,2.1,4.4c1.7,0.7,3.6,0.3,5.3-0.4c2.5-1,4.7-2.8,6.4-4.9"/>
		</g>
	</g>
</g>
<g id="girl">
	<g id="leg_left">
		<path class="st0" d="M73.3,562.3c-1.1,6.7-2.2,13.4-3.3,20.1c40.2,3.4,60.7,2.8,61.6-1.6c0.8-3.7-12.2-10.2-38.9-19.5
			C86.2,561.6,79.8,561.9,73.3,562.3z"/>
		<g>
			<g>
				<path class="st5" d="M97.2,563.3c-2.1,1.7-4.2,3.9-4.6,6.8c-0.1,1,0,2.7,1.3,2.6c1.9-0.1,3.6-3.6,4-5.2c0.4-1.6,0.1-3.1,0.7-4.6
					c0.2-1,0.7-1.8,1.5-2.5c0.4-0.8,0.8-0.7,1.2,0.2c1.1,0.7,0.9,1.3-0.5,1.8c-0.7,0.5-1.4,0.8-2.2,1c-0.5,0.1-0.3,0.9,0.2,0.7
					c1.5-0.5,5.3-2.3,4.9-4.5c-0.3-1.4-1.9-1.5-3-0.9c-2.7,1.5-3.1,4.3-3.3,7c-0.1,1.3-0.4,2.5-1.1,3.7c-0.4,0.6-2.7,4.1-2.8,0
					c-0.1-2.1,2.8-4.5,4.2-5.6C98.1,563.5,97.6,563,97.2,563.3L97.2,563.3z"/>
			</g>
		</g>
		<g>
			<g>
				<path class="st5" d="M104.4,565.7c-1.1,1.4-1.8,3-2.2,4.7c-0.1,0.5,0.6,0.7,0.7,0.2c0.3-1.6,0.9-3.1,2-4.4
					C105.3,565.9,104.7,565.4,104.4,565.7L104.4,565.7z"/>
			</g>
		</g>
		<g>
			<g>
				<path class="st5" d="M108.7,566.4c-1.3,1.2-1.9,2.8-1.9,4.5c0,0.5,0.8,0.5,0.8,0c0-1.5,0.6-2.9,1.7-4
					C109.6,566.6,109,566,108.7,566.4L108.7,566.4z"/>
			</g>
		</g>
		<g>
			<g>
				<path class="st5" d="M113.8,567.5c-1.9,1.5-2.8,3.8-2.4,6.1c0.1,0.5,0.8,0.3,0.7-0.2c-0.3-2.1,0.6-4.1,2.2-5.4
					C114.7,567.8,114.2,567.2,113.8,567.5L113.8,567.5z"/>
			</g>
		</g>
		<g>
			<g>
				<path class="st5" d="M118.4,570c-1.2,1.3-2,2.7-2.5,4.4c-0.1,0.5,0.6,0.7,0.7,0.2c0.5-1.5,1.2-2.9,2.3-4.1
					C119.2,570.2,118.7,569.7,118.4,570L118.4,570z"/>
			</g>
		</g>
		<g>
			<g>
				<path class="st5" d="M73.6,580.4c12.9,1.1,25.8,1.9,38.7,2.4c0.5,0,0.5-0.7,0-0.8c-12.9-0.5-25.8-1.3-38.7-2.4
					C73.1,579.6,73.2,580.4,73.6,580.4L73.6,580.4z"/>
			</g>
		</g>
		<path class="st9" d="M63,332.9c0.6,30.1,1.4,55.9,2.1,76.2c1.7,45.3,3.7,80.4,5,102.9c1.2,20.4,2.3,37.6,3.2,50.2
			c1,1.2,2.6,2.7,5,3.5c4.7,1.6,10.2-0.2,14.4-4.5c1.1-22.6,2.6-43.4,4.4-62.4c2.4-24.8,5-45.3,7.1-59.6c0.4-3,1.9-13.3,5.4-34.5
			c3-18,7.2-42.8,12.8-72.8C102.6,332.3,82.8,332.6,63,332.9z"/>
		<g>
			<path class="st3" d="M62.6,333.1c1.9,76.4,5.5,152.8,10.7,229.1"/>
		</g>
		<g>
			<path class="st3" d="M113.3,384.1c-11,58.5-17.9,117.7-20.6,177.2"/>
		</g>
		<g>
			<path class="st3" d="M74,563.6c4.8,3.7,12.3,3.6,17-0.2"/>
		</g>
	</g>
	<g id="leg_right">
		<path class="st0" d="M139.5,572.2c0.2,5.3,0.4,10.6,0.7,15.8c35.2,1,53-0.3,53.5-3.9c0.4-3.2-12.1-8.1-37.7-14.8
			C150.5,570.3,145,571.2,139.5,572.2z"/>
		<path class="st9" d="M85.4,336.4c-0.7,4.4-1.2,9.6-1.2,15.6c0.1,5,0.5,9.5,1.2,13.4c3.5,14.3,7.1,28.6,10.8,43
			c14.3,56,29.1,110.9,44.4,164.9c1,0.7,2.7,1.8,5.1,2.2c5.1,0.8,8.9-2.2,9.6-2.8c-7.5-108.2-10.7-150.4-12.1-167
			c-0.7-8.2-1.4-15.2-2.8-31.9c-1.2-14.3-1.7-21.6-2.9-32.6c-1.1-9.9-2.3-17.9-3.1-23C118.1,324.2,101.7,330.3,85.4,336.4z"/>
		<g>
			<path class="st3" d="M137.3,339.1c7,76.6,13.3,153.4,18.7,230.1"/>
		</g>
		<g>
			<g>
				<path class="st5" d="M84.2,361.9c17.3,70.4,36.2,140.4,55,210.3c0.1,0.5,0.8,0.3,0.7-0.2c-18.8-70-37.6-140-55-210.3
					C84.8,361.3,84.1,361.5,84.2,361.9L84.2,361.9z"/>
			</g>
		</g>
		<g>
			<path class="st3" d="M140.7,573.2c2.1,1.6,4.8,2.5,7.5,2.4c2.7-0.1,5.3-1.2,7.2-3"/>
		</g>
		<g>
			<g>
				<path class="st5" d="M159.2,572.1c-2.1,1.5-5.3,4.2-5.8,6.9c-0.2,1.4,0.5,2.3,1.9,1.7c2.4-1,3.7-4.1,4.3-6.4
					c0.3-1.5,0.5-5.3,2.1-6c1.8,0.7,2.2,1.5,1.3,2.4c-0.3,0.4-0.6,0.8-1,1.1c-0.9,1-2,1.7-3.1,2.3c-0.4,0.2,0,0.9,0.4,0.6
					c1.9-1.1,5.1-3.3,5.2-5.8c0.1-1.7-1.4-2.5-2.8-1.7c-2.5,1.4-2.4,5.2-3,7.5c-0.3,0.9-0.6,1.8-1.1,2.6c-0.4,0.7-4,4.9-2.8,0.5
					c0.6-2.1,3.3-4.1,4.9-5.2C159.9,572.4,159.6,571.8,159.2,572.1L159.2,572.1z"/>
			</g>
		</g>
		<g>
			<g>
				<path class="st5" d="M167,571.9c-2.1,1.1-3.6,3.1-3.9,5.5c-0.1,0.5,0.7,0.7,0.7,0.2c0.3-2.2,1.6-4,3.5-5
					C167.8,572.3,167.5,571.7,167,571.9L167,571.9z"/>
			</g>
		</g>
		<g>
			<g>
				<path class="st5" d="M170.8,572.7c-1.6,1.2-2.5,3.1-2.6,5.1c0,0.5,0.7,0.5,0.8,0c0.1-1.8,0.9-3.4,2.3-4.5
					C171.7,572.9,171.2,572.4,170.8,572.7L170.8,572.7z"/>
			</g>
		</g>
		<g>
			<g>
				<path class="st5" d="M175.9,574c-1.7,1.3-2.6,3.3-2.7,5.4c0,0.5,0.7,0.5,0.8,0c0-1.9,0.9-3.6,2.4-4.8
					C176.8,574.2,176.3,573.7,175.9,574L175.9,574z"/>
			</g>
		</g>
		<g>
			<g>
				<path class="st5" d="M141.8,586.3c11.2,0.1,22.5,0.1,33.7,0.2c0.5,0,0.5-0.7,0-0.8c-11.2-0.2-22.5-0.2-33.7-0.2
					C141.4,585.5,141.4,586.3,141.8,586.3L141.8,586.3z"/>
			</g>
		</g>
	</g>
	<g id="hand_left">
		<path class="st8" d="M169.8,253.9c0.1-1.3,0.9-2.6,2.5-5.1c0.8-1.3,1.6-2.3,5.7-7.6c2.4-3,3.4-4.2,5.2-4.6
			c0.5-0.1,1.9-0.4,2.6,0.3c0.7,0.7,0.7,2,0,3.4c0.8-0.4,2.1-1,3.6-1.7c7.8-3.4,9.4-2.7,10-2.3c0.7,0.5,1,1.1,1.5,2.1
			c0.3,0.7,1.3,2.8,0.8,5c-0.1,0.7-0.5,1.6-2.8,4.1c-1.3,1.4-3,3.3-6,5.5c-2.1,1.5-3.7,2.4-5.8,3.6c-2.7,1.5-4.3,2.4-6.6,3.2
			c-3.3,1.1-5,1.7-6.7,1C171.2,259.7,169.7,256.5,169.8,253.9z"/>
		<path class="st2" d="M66,227.6c-0.2-2.4-0.1-6.2,1.9-10c4.5-8.7,15.5-11.2,22.9-10.8c5.5,0.3,9.8,2.3,12.5,3.9
			c0.5,1.2,1.2,3.3,2.2,5.8c6.2,16,12.1,29,16.3,38c0.8,1.6,2,4.2,3.4,7.2c4.3-0.6,7.8-1.1,10.3-1.6c14.7-2.5,25-5.4,27.4-6.1
			c3.7-1.1,6.8-2.1,8.7-2.7c1,0.1,2.9,0.4,4.8,1.8c3.1,2.3,3.9,5.6,4.1,6.5c-0.8,0.9-2.1,2.2-3.8,3.7c-9.7,8.9-19,13.4-27.1,17.3
			c-10.5,5-19.1,7.5-22.9,8.5c-5.5,1.5-10.3,2.4-14.1,3c-1.4-1.2-3.3-3-5.6-5.1c-3.4-3.3-13.4-12.8-21.4-23.4
			C80.4,256.8,72.6,245,66,227.6z"/>
		<g>
			<path class="st3" d="M66,227.6c9.3,24.7,25.3,46.9,45.8,63.5"/>
		</g>
		<g>
			<path class="st3" d="M103.3,210.8c6.6,17.3,13.9,34.4,21.9,51.1"/>
		</g>
		<g>
			<g>
				<path class="st4" d="M126.7,262.1c14.1-2,27.9-5,41.6-9c0.5-0.1,0.3-0.9-0.2-0.7c-13.6,4-27.5,7-41.6,9
					C126,261.4,126.2,262.1,126.7,262.1L126.7,262.1z"/>
			</g>
		</g>
		<g>
			<path class="st3" d="M112.6,292.2c24.6-3.8,48.1-14.7,66.9-31.1"/>
		</g>
		<g>
			<path class="st3" d="M171.6,251.5c4.3,0.6,8,4.1,8.9,8.3"/>
		</g>
		<g>
			<path class="st3" d="M172.3,248.8c2.6-4.4,6.1-8.3,10.1-11.5c0.7-0.6,1.6-1.2,2.5-1c0.9,0.1,1.6,1.5,0.8,2"/>
		</g>
		<g>
			<g>
				<path class="st4" d="M182.9,242.6c5-3.4,10.6-5.3,16.6-5.9c0.5,0,0.5-0.8,0-0.8c-6.1,0.6-11.8,2.6-17,6
					C182.1,242.2,182.5,242.9,182.9,242.6L182.9,242.6z"/>
			</g>
		</g>
		<g>
			<g>
				<path class="st4" d="M188.4,243.7c4.2-1.9,8.5-3.7,12.7-5.6c0.4-0.2,0.1-0.8-0.4-0.6c-4.2,1.9-8.5,3.7-12.7,5.6
					C187.6,243.2,188,243.9,188.4,243.7L188.4,243.7z"/>
			</g>
		</g>
		<g>
			<g>
				<path class="st4" d="M200.3,240.4c-3.1,2-6.1,4.1-8.9,6.6c-0.4,0.3,0.2,0.8,0.5,0.5c2.8-2.4,5.7-4.5,8.8-6.4
					C201.1,240.8,200.7,240.2,200.3,240.4L200.3,240.4z"/>
			</g>
		</g>
		<g>
			<path class="st3" d="M202.2,242.5c-1.9,4-5.1,7.3-8.6,10c-3.6,2.6-7.5,4.7-11.4,6.7"/>
		</g>
	</g>
	<g id="torso">
		<path class="st2" d="M61.3,175.3c-1.2,1.1-3,3-4.4,5.7c-1.7,3.1-2.1,5.9-2.3,7.1c-3.1,20.7-2.6,30-2.6,30
			c1.6,25-1.1,23.8,1.2,51.9c1.4,16.9,4.1,38.4,9.5,63.2c4.8,1.8,8.9,3,12.1,3.9c11,3,19.3,3.9,21.4,4.1c0,0,2.9,0.3,6.1,0.5
			c13,0.7,26.9-1.1,35.1-2.4c3.4-19,8-47.7,10.7-77.1c1.1-12.1,1.6-21.4,1.7-31.4c0.2-14-0.5-25.8-1.2-34.3
			c-4.8-2.5-11.4-5.8-19.6-9c-19.2-7.5-35-9.9-41.7-10.8C80.5,175.8,71.7,175.1,61.3,175.3z"/>
		<g>
			<path class="st3" d="M61.3,175.3c29.6-0.6,59.4,6.3,85.7,20"/>
		</g>
		<g>
			<path class="st3" d="M55.4,181.9c-7.5,49.1-3,99.2,5.8,148.1"/>
		</g>
		<g>
			<path class="st3" d="M148.8,202.8c3.8,44.5-4,89.1-11.8,133.2"/>
		</g>
		<g>
			<path class="st3" d="M63,332.9c22.8,9.3,48.5,11.3,72.4,5.7"/>
		</g>
	</g>
	<g id="hand_right">
		<path class="st2" d="M150.2,197.4c-3.9-1.4-9.5-2.9-16.1-2.6c-18.6,0.9-30.3,14.6-32.7,17.6c4,8.4,14.2,30,26.4,52.8
			c20.2,37.8,14.8,21.2,18.9,29.1c0.5,1,2.1,4.1,5.4,6.3c0.6,0.4,2.6,1.7,6.3,2.4c4.8,1,8.7,0.3,11-0.1c7.8-1.2,5,0.1,17.8-1.5
			c10.8-1.3,19-3,25.3-4.3c5-1,11-2.4,17.8-4.1c0.4-1.1,0.7-2.4,0.8-4c0.3-4.3-1.3-7.7-2.2-9.4c-4.2-1-8.6-2.1-12.9-3.3
			c-16.5-4.5-31.6-9.9-45.4-15.7c-3.1-11.2-6.7-22.9-10.6-34.8C156.9,216.1,153.6,206.5,150.2,197.4z"/>
		<path class="st8" d="M230.3,279.2c1.3-1,2.4-1.7,3-2.2c6.3-4.5,7.3-4.2,8.6-5.9c0.2-0.3,0.7-1,1.5-1.2c1.1-0.2,2.1,0.8,2.2,0.9
			c1.3,1.3,0.9,4.5-0.9,7.8c1.5,0.4,3.9,1.1,6.7,1.8c7.2,1.8,10.7,2.7,13.7,2.8c5.2,0.2,8.6-0.8,9.3,0.6c0.2,0.5-0.1,0.9-1,3.1
			c-1.7,4-1.2,3.7-1.9,4.9c-1.4,2.5-3.4,3.9-5.7,5.4c-1,0.7-2.2,1.5-3.9,2.2c-3.9,1.7-7.5,1.5-10.2,1.2c-4.2-0.3-7.1-1.3-10.6-2.6
			c-5.7-2-8.7-4.1-10.5-5.5c-2.6-2.1-3.1-3.3-3.3-3.7C225.6,284.7,229.7,280,230.3,279.2z"/>
		<g>
			<path class="st3" d="M150.2,196.9c7.5,20.8,14.2,41.8,20.1,63.1"/>
		</g>
		<g>
			<path class="st3" d="M170.8,260.9c19,7.3,38.5,13.4,58.2,18.3"/>
		</g>
		<g>
			<path class="st3" d="M110.6,231.6c10.2,22.2,22.6,43.5,36.9,63.3c1.7,2.4,3.6,4.9,6.2,6.3c3,1.6,6.5,1.6,9.8,1.5
				c22-0.5,43.9-3.9,65.1-10"/>
		</g>
		<g>
			<path class="st3" d="M229.8,280.3c2.1,3.1,2.3,7.3,0.5,10.6"/>
		</g>
		<g>
			<g>
				<path class="st4" d="M230.5,279.6c1.5-1.1,13.3-10.8,14.8-8.6c0.3,0.4,0.9,0,0.6-0.4c-1-1.5-3.8-0.1-4.9,0.5
					c-3.9,2-7.4,5.2-10.9,7.8C229.7,279.2,230.1,279.9,230.5,279.6L230.5,279.6z"/>
			</g>
		</g>
		<g>
			<path class="st3" d="M244.7,278.6c9.7,2.6,19.6,5.3,29.7,5.1"/>
		</g>
		<g>
			<path class="st3" d="M230.4,292.6c4.9,3.1,10.2,5.9,15.8,7.3c5.7,1.4,11.8,1.4,17.2-1"/>
		</g>
		<g>
			<g>
				<path class="st4" d="M254.5,288.3c6.2,0.4,13.9,0.5,19.4-3c0.4-0.3,0-0.9-0.4-0.6c-5.4,3.4-12.9,3.2-19,2.9
					C254,287.5,254,288.2,254.5,288.3L254.5,288.3z"/>
			</g>
		</g>
		<g>
			<g>
				<path class="st4" d="M255.5,292.4c6,0.6,11.8-0.8,17-3.9c0.4-0.2,0-0.9-0.4-0.6c-5.1,3.1-10.7,4.4-16.6,3.8
					C255,291.6,255.1,292.3,255.5,292.4L255.5,292.4z"/>
			</g>
		</g>
		<g>
			<g>
				<path class="st4" d="M256.8,296.2c5.2,1.2,10.9-1.2,15.2-4.3c0.4-0.3,0-0.9-0.4-0.6c-4,2.9-9.5,5.4-14.6,4.2
					C256.5,295.3,256.3,296.1,256.8,296.2L256.8,296.2z"/>
			</g>
		</g>
	</g>
	<g id="head">
		<path class="st8" d="M115.1,148.9c0.4,0.8,1,2,1.5,3.5c0.7,1.9,1.3,3.7,1.4,6c0,0.9,0.1,3.8-1.6,6.8c-0.9,1.5-2.1,2.9-5,4.9
			c-5.6,3.7-10.2,6.8-13.4,5.1c-3.7-1.9-4-9.5-2-14.7C98.7,153.8,106.2,149.4,115.1,148.9z"/>
		<path class="st10" d="M99.1,138.7c-0.9-1.3-3.1-3.9-6.7-5.2c-0.4-0.1-7.9-2.7-13.1,2c-0.8,0.7-3.5,3.1-3.6,6.4
			c-0.1,3.5,2.7,5.8,1.4,8.3c-0.3,0.6-0.7,0.9-1.5,1.6c-1.8,1.4-3.4,1.5-5.9,2.4c0,0-0.9,0.3-4.2,1.8c-1.7,0.8-8.1,3.7-11.6,9.7
			c-2.3,4-2.5,7.7-2.6,10.9c-0.2,3.3-0.5,10.1,3.9,17.1c5.1,8,13.1,10.5,15,11.1c7.3,2.1,13.3,0.3,16.4-0.6
			c2.3-0.7,13.8-4.5,19.7-15.8c5-9.4,3.5-19.2,2.3-27.4c-0.4-2.5-0.8-4.5-1.2-5.9c0.9-0.4,2-1,3.3-1.9c4.1-2.9,6-6.7,6.7-8.3
			c1.1-2.6,2.4-5.5,1.4-8.8c-0.2-0.6-1.2-4.4-4.3-5.5c-2.6-0.9-5.1,0.5-8.1,2.2C104.5,133.7,101.8,135.5,99.1,138.7z"/>
		<g>
			<path class="st3" d="M115.4,150.4c1.5,1.7,2.2,4,2.5,6.2c0.3,2.7,0,5.6-1.2,8c-1.3,2.4-3.6,4.3-6.3,4.8"/>
		</g>
		<g>
			<path class="st3" d="M99.1,139.1c2.2-2.9,5-5.3,8.2-7c2.7-1.5,6.2-2.4,8.8-0.7c2.4,1.6,3,4.9,2.8,7.8
				c-0.6,6.8-5.1,13.2-11.4,15.9"/>
		</g>
		<g>
			<path class="st3" d="M99.1,138.7c-1.8-2.4-4.7-3.8-7.6-4.6c-4.1-1.1-8.8-1.1-12.3,1.4c-3.5,2.5-4.9,7.9-2.2,11.1
				c0.9,1.1,2.2,2.4,1.4,3.6c-0.2,0.4-0.7,0.6-1,0.7c-4.3,2-8.8,3.5-13.1,5.6s-8.3,5-10.5,9.2c-1.3,2.3-1.9,5-2.3,7.6
				c-1.3,9,1,18.9,7.5,25.2c5.4,5.3,13.3,7.6,20.8,6.9c7.5-0.7,14.6-4.2,20.3-9.2c2.2-2,4.3-4.2,5.7-6.8c0.9-1.7,1.5-3.5,2-5.3
				c4.3-15.2,0.8-32.4-9-44.8"/>
		</g>
	</g>
</g>
<g id="background">
	<g id="plant">
		<polygon class="st4" points="230.8,476.8 240.5,539.1 272.2,539.1 279.4,476.8 		"/>
		<ellipse class="st1" cx="255.1" cy="477.5" rx="24.3" ry="4.9"/>
		<g>
			<g>
				<path class="st11" d="M251.1,405.3c-7.5,11.3,4.5,21.5,6.5,32.2c2.4,13.4-8.8,25.6-2.7,39c0.8,1.8,3.4,0.2,2.6-1.5
					c-5.4-11.9,4.3-23.9,3.3-36.1c-0.9-10.6-14-21.5-7.1-32.1C254.7,405.2,252.1,403.7,251.1,405.3L251.1,405.3z"/>
			</g>
		</g>
		<g>
			<g>
				<path class="st11" d="M241.3,422.1c-1.6,6.4-1.4,12.9,1.1,19.1c2.9,7,11,12.3,10.9,20.3c0,1.9,3,1.9,3,0
					c0.1-6.3-3.9-10.4-7.4-15.1c-5.1-6.9-6.8-15.1-4.6-23.4C244.7,421,241.8,420.3,241.3,422.1L241.3,422.1z"/>
			</g>
		</g>
		<g>
			<g>
				<path class="st11" d="M266.9,410.9c-1,4.5-3.5,7.3-6.2,10.8c-2.2,2.9-3.6,6.2-4.4,9.8c-0.4,1.9,2.5,2.7,2.9,0.8
					c1.8-8,8.9-12.5,10.6-20.5C270.2,409.8,267.3,409,266.9,410.9L266.9,410.9z"/>
			</g>
		</g>
		<path class="st11" d="M243.5,440.1c-2-0.7-5.5-2.1-8.2-5.5c-6.7-8.1-2.8-19.2-2.5-19.9c1.1,1.9,2.2,3.9,3.3,6
			C239.6,427.6,241.9,434.2,243.5,440.1z"/>
		<path class="st11" d="M251.3,419.3c-1.5-1.5-3.4-3.9-4.6-7.2c-3.3-8.9,1.1-17.2,1.9-18.7c1.6,1.3,3.5,3.2,4.8,6
			C257.9,408.6,251.9,418.4,251.3,419.3z"/>
		<path class="st11" d="M263.3,421c-0.4-2-0.8-4.9-0.2-8.2c1.5-8.1,7.4-12.7,9.1-13.9c0.7,1.7,1.7,4.9,1.2,8.7
			C272.1,416.2,264.2,420.5,263.3,421z"/>
		<path class="st11" d="M249.4,449.5c-0.9-1.8-1.9-4.5-2.1-7.9c-0.5-6.3,2-11,3.1-12.9c0.9,1.5,1.8,3.6,2.3,6.2
			C254,442,250.5,447.8,249.4,449.5z"/>
		<path class="st11" d="M242.3,424.5c-1.2-2-3.4-6-3.9-11.5c-0.5-6,1.2-10.6,2.1-12.7c1.2,2.2,2.7,5.7,3.3,10.2
			C244.6,416.8,243.2,421.8,242.3,424.5z"/>
	</g>
	<g id="tab_2">
		<polygon class="st12" points="288.7,300 289.6,365.6 473.2,448.7 477.2,369.7 		"/>
		<path class="st1" d="M293.4,306.2c0.4,1.2,0,29.5,0,29.5l168.2,61l0.8-26.9L293.4,306.2z"/>
		<line class="st13" x1="298" y1="360.3" x2="457.3" y2="428.3"/>
		<line class="st14" x1="321.8" y1="363.6" x2="457.3" y2="419.5"/>
		<line class="st14" x1="306.6" y1="348.6" x2="457.3" y2="407.8"/>
	</g>
	<g id="tab">
		<path class="st15" d="M427.1,61.7v55.5L581.5,142c0.7-21.4,1.4-42.8,2.2-64.2C531.5,72.4,479.3,67.1,427.1,61.7z"/>
		<line class="st16" x1="436.7" y1="75.2" x2="565.6" y2="88.2"/>
		<line class="st16" x1="438.2" y1="85.8" x2="552.6" y2="99"/>
		<circle class="st0" cx="567.4" cy="100" r="4"/>
	</g>
</g>
</svg>
